<svg width="32" height="32" viewBox="0 0 32 32" fill="none" xmlns="http://www.w3.org/2000/svg">
<path d="M15.2793 10.4145C15.1338 9.49976 14.9624 8.6389 14.771 7.83701C14.482 9.03817 14.2429 10.3792 14.0635 11.828C13.5652 12.4429 13.0948 13.0729 12.6544 13.7198C12.4929 13.9574 12.3315 14.1983 12.174 14.4459C11.7236 14.0028 11.2532 13.5749 10.7649 13.1639C10.5636 12.2222 10.458 11.2535 10.458 10.2646C10.458 6.37304 12.0724 2.79989 14.771 0C16.7302 2.03506 18.1214 4.47949 18.7333 7.15809C17.4916 8.16889 16.3356 9.25717 15.2793 10.4145Z" fill="#F1CD84"/>
<path d="M16.1046 30.8477C15.8574 30.467 15.6043 30.0846 15.3432 29.7021C15.2974 29.6364 15.2535 29.5707 15.2077 29.5034C14.548 28.5381 13.8763 27.5997 13.2007 26.6967C12.4792 25.728 11.7497 24.7998 11.0222 23.9137C9.39787 21.9376 7.78148 20.1839 6.24681 18.7165C7.24933 21.2469 8.72022 24.1529 10.5857 27.2156C10.9285 27.7783 11.2853 28.3443 11.652 28.9154C12.0287 29.4966 12.4174 30.0812 12.818 30.6691C13.1249 31.1189 13.4338 31.5637 13.7488 32C12.6685 31.5519 11.6221 31.0364 10.6256 30.4552C10.6216 30.4518 10.6176 30.4501 10.6156 30.4484C7.70574 28.752 5.18849 26.4963 3.30304 23.7368C0.357271 19.4258 -0.555558 14.5942 0.315416 10.0338C5.31804 11.646 9.73669 14.6413 12.6805 18.8176C12.7422 18.9018 12.8 18.9877 12.8598 19.0737C13.9221 20.6303 14.7214 22.2526 15.2655 23.9086C15.7638 25.4265 16.0527 26.968 16.1345 28.5077C16.1763 29.2894 16.1664 30.0711 16.1026 30.8477H16.1046Z" fill="#F1CD84"/>
<path d="M27.6144 21.0262C25.3144 24.3938 22.3029 27.1971 18.8309 29.3787C18.8309 29.0535 18.821 28.7284 18.803 28.4066C18.7412 27.2712 18.5798 26.1391 18.3207 25.0239C20.6207 21.1862 22.4444 17.549 23.706 14.3634C21.6013 16.3732 19.381 18.7906 17.1567 21.5198C16.806 20.7162 16.4034 19.9295 15.9489 19.1613C15.9131 19.1023 15.8792 19.0416 15.8413 18.9827C15.632 18.6306 15.4068 18.2836 15.1736 17.9416C15.1059 17.8455 15.0381 17.7478 14.9683 17.6518C14.6534 17.2054 14.3186 16.7674 13.9658 16.3411C14.2648 15.8341 14.5837 15.332 14.9245 14.8334C15.1676 14.4779 15.4188 14.1292 15.6759 13.7872C16.6963 12.4311 17.8364 11.176 19.0801 10.0237C22.5819 6.77231 26.8869 4.34304 31.5826 2.83191C32.7366 8.88655 31.5228 15.3017 27.6144 21.0262Z" fill="#F1CD84"/>
</svg>
