<svg width="100" height="100" viewBox="0 0 100 100" fill="none" xmlns="http://www.w3.org/2000/svg">
<path d="M21.257 61.818C21.9804 63.3535 23.264 64.554 24.8443 65.1732C26.4247 65.7925 28.1821 65.7837 29.7562 65.1485C31.3304 65.7833 33.0878 65.792 34.6682 65.1728C36.2486 64.5535 37.5323 63.3533 38.2562 61.818L40.3898 57.3102C40.5446 56.9824 40.563 56.6065 40.441 56.2651C40.319 55.9236 40.0665 55.6446 39.739 55.4891C38.4134 54.8599 36.9206 54.6739 35.4812 54.9586C34.9499 50.9454 32.7929 46.3196 29.6484 46.3196C26.4843 46.3196 24.3476 50.8797 23.8179 54.9188C22.4431 54.693 21.0321 54.8919 19.7734 55.4891C19.611 55.5659 19.4654 55.674 19.3449 55.8071C19.2243 55.9402 19.1311 56.0957 19.0707 56.2648C19.0103 56.4339 18.9837 56.6133 18.9926 56.7927C19.0015 56.972 19.0457 57.1479 19.1226 57.3102L21.257 61.818ZM37.2351 57.5829L35.7812 60.6477C35.4201 61.4105 34.8234 62.0371 34.0792 62.435C33.3349 62.833 32.4825 62.9812 31.6476 62.8579L33.0281 59.9438C33.3993 59.1637 34.0032 58.5179 34.7566 58.0951C35.5099 57.6723 36.3758 57.4934 37.2351 57.5829ZM26.4538 55.9313C26.7312 52.4008 28.589 49.0563 29.6452 49.0563C30.7273 49.0563 32.6077 52.4641 32.8484 56.0641C31.8635 56.7546 31.0735 57.6876 30.5546 58.7727L29.7562 60.4688L28.9531 58.768C28.4001 57.6093 27.5359 56.6272 26.457 55.9313H26.4538ZM26.478 59.9407L27.8601 62.8579C27.025 62.9818 26.1723 62.8338 25.4278 62.4358C24.6833 62.0378 24.0865 61.4109 23.7257 60.6477L22.2749 57.5844C23.1335 57.4979 23.998 57.6776 24.751 58.0992C25.504 58.5207 26.1091 59.1636 26.4843 59.9407H26.478Z" fill="#77846E"/>
<path d="M93.6094 48.2555H81.5141V45.9828C82.6564 45.7723 83.7314 45.2903 84.6486 44.5775C85.5658 43.8647 86.2982 42.942 86.7843 41.8869C87.2703 40.8319 87.4957 39.6756 87.4415 38.5153C87.3872 37.3549 87.055 36.2246 86.4727 35.2196L81.3648 26.3735C81.2448 26.1656 81.0723 25.9931 80.8644 25.8731C80.6566 25.7531 80.4208 25.6899 80.1809 25.6899C79.9409 25.6899 79.7051 25.7531 79.4973 25.8731C79.2895 25.9931 79.1169 26.1656 78.9969 26.3735L73.8891 35.2196C73.3096 36.2195 72.9776 37.3436 72.9209 38.4979C72.8641 39.6523 73.0842 40.8035 73.5628 41.8555C74.0414 42.9074 74.7646 43.8297 75.6721 44.5454C76.5796 45.2611 77.6451 45.7494 78.7797 45.9695V48.2555H67.9836C67.5697 47.5341 66.9831 46.9268 66.2765 46.4881C65.5698 46.0494 64.7653 45.7931 63.9352 45.7422C64.3589 45.0405 64.6237 44.2544 64.7111 43.4394C64.7984 42.6243 64.7062 41.8 64.4408 41.0244C64.1755 40.2488 63.7434 39.5408 63.1751 38.95C62.6068 38.3593 61.9159 37.9002 61.1512 37.6051C60.3864 37.31 59.5663 37.186 58.7485 37.2418C57.9306 37.2976 57.135 37.5318 56.4174 37.9281C55.6998 38.3244 55.0777 38.873 54.5949 39.5355C54.1121 40.1979 53.7802 40.9581 53.6227 41.7625H25.625L19.6562 28.4719C20.2635 27.0813 20.4484 25.5428 20.1877 24.048C19.9271 22.5531 19.2325 21.1679 18.1904 20.0649C17.1484 18.9619 15.8049 18.1898 14.3272 17.8447C12.8496 17.4997 11.3031 17.5969 9.88025 18.1242C8.45744 18.6516 7.22118 19.5858 6.32541 20.8106C5.42964 22.0354 4.91394 23.4967 4.84251 25.0124C4.77108 26.5281 5.14709 28.0314 5.9237 29.335C6.70032 30.6386 7.84324 31.6849 9.21016 32.3438L11.9883 41.7625H3.125C2.94543 41.7624 2.7676 41.7977 2.60168 41.8664C2.43576 41.9351 2.285 42.0358 2.15802 42.1627C2.03105 42.2897 1.93035 42.4405 1.86167 42.6064C1.793 42.7723 1.75771 42.9501 1.75781 43.1297V54.4813C1.76331 58.4068 3.23759 62.1882 5.89063 65.0815C8.54367 67.9749 12.1834 69.7707 16.0938 70.1156V72.4664C16.0983 72.7952 16.1472 73.1218 16.2391 73.4375H6.22344C5.03908 73.4375 3.90323 73.908 3.06576 74.7455C2.2283 75.5829 1.75781 76.7188 1.75781 77.9031C1.75781 79.0875 2.2283 80.2233 3.06576 81.0608C3.90323 81.8983 5.03908 82.3688 6.22344 82.3688H93.7766C94.6591 82.3692 95.522 82.1079 96.2561 81.618C96.9903 81.1281 97.5627 80.4315 97.901 79.6163C98.2393 78.8012 98.3283 77.904 98.1568 77.0382C97.9853 76.1725 97.561 75.377 96.9375 74.7524C97.7747 73.8914 98.2428 72.7376 98.2422 71.5367V52.8805C98.2399 51.6532 97.7508 50.477 96.8823 49.6099C96.0137 48.7428 94.8367 48.2557 93.6094 48.2555ZM76.257 36.5867L80.1813 29.7899L84.1039 36.5867C84.4453 37.1759 84.6492 37.8346 84.7005 38.5136C84.7518 39.1926 84.6492 39.8745 84.4002 40.5083C84.1512 41.1421 83.7624 41.7115 83.2626 42.1741C82.7629 42.6366 82.1652 42.9804 81.5141 43.1797V41.8789C81.5141 41.5163 81.37 41.1686 81.1136 40.9122C80.8572 40.6558 80.5095 40.5117 80.1469 40.5117C79.7843 40.5117 79.4365 40.6558 79.1801 40.9122C78.9237 41.1686 78.7797 41.5163 78.7797 41.8789V43.1563C78.1375 42.9489 77.5498 42.6005 77.0598 42.1364C76.5698 41.6724 76.1899 41.1045 75.948 40.4745C75.7061 39.8445 75.6083 39.1683 75.6618 38.4956C75.7152 37.8229 75.9186 37.1706 76.257 36.5867ZM38.1297 73.4375H19.7969C19.5401 73.4373 19.294 73.3353 19.1124 73.1538C18.9308 72.9724 18.8285 72.7263 18.8281 72.4696V70.1883H36.8047C36.9708 71.3643 37.426 72.4807 38.1297 73.4375ZM43.632 73.4375C43.6242 73.4375 43.6172 73.4375 43.6094 73.4375C43.0635 73.445 42.5215 73.344 42.015 73.1403C41.5084 72.9366 41.0474 72.6342 40.6587 72.2509C40.27 71.8675 39.9614 71.4107 39.7507 70.907C39.54 70.4033 39.4315 69.8628 39.4315 69.3168C39.4315 68.7709 39.54 68.2303 39.7507 67.7266C39.9614 67.223 40.27 66.7662 40.6587 66.3828C41.0474 65.9994 41.5084 65.6971 42.015 65.4933C42.5215 65.2896 43.0635 65.1886 43.6094 65.1961H74.6578C75.2037 65.1887 75.7457 65.2898 76.2522 65.4936C76.7587 65.6975 77.2196 65.9999 77.6082 66.3833C77.9969 66.7668 78.3054 67.2237 78.516 67.7274C78.7266 68.2311 78.835 68.7716 78.8349 69.3176C78.8348 69.8636 78.7262 70.4041 78.5154 70.9077C78.3046 71.4114 77.9959 71.8681 77.6071 72.2514C77.2184 72.6347 76.7573 72.937 76.2507 73.1406C75.7441 73.3442 75.2022 73.4451 74.6562 73.4375H43.632ZM48.1055 55.7813H70.1609C71.0378 55.7947 71.8742 56.1524 72.4895 56.7772C73.1048 57.402 73.4497 58.2438 73.4497 59.1207C73.4497 59.9977 73.1048 60.8394 72.4895 61.4642C71.8742 62.089 71.0378 62.4468 70.1609 62.4602H48.1094C47.6665 62.4669 47.2268 62.3856 46.8157 62.2208C46.4046 62.056 46.0304 61.8111 45.7148 61.5003C45.3992 61.1896 45.1486 60.8191 44.9776 60.4106C44.8065 60.0021 44.7185 59.5636 44.7185 59.1207C44.7185 58.6778 44.8065 58.2394 44.9776 57.8308C45.1486 57.4223 45.3992 57.0519 45.7148 56.7411C46.0304 56.4303 46.4046 56.1854 46.8157 56.0206C47.2268 55.8559 47.6665 55.7745 48.1094 55.7813H48.1055ZM95.5078 52.8828V71.536C95.508 72.0398 95.3082 72.5231 94.9522 72.8797C94.5962 73.2363 94.1132 73.4369 93.6094 73.4375H80.1406C80.8773 72.4571 81.3375 71.297 81.4734 70.0783C81.6093 68.8595 81.4158 67.6265 80.9132 66.508C80.4105 65.3894 79.6171 64.426 78.6155 63.7184C77.614 63.0107 76.441 62.5846 75.2188 62.4844C75.8694 61.4867 76.2218 60.3239 76.2344 59.1328V59.1227C76.2296 57.5137 75.5887 55.9719 74.4515 54.8336C73.3143 53.6954 71.773 53.0531 70.1641 53.0469H68.1047C68.4228 52.4058 68.6087 51.7074 68.6516 50.993H93.6094C94.1111 50.9926 94.5926 51.1909 94.9484 51.5447C95.3042 51.8984 95.5053 52.3788 95.5078 52.8805V52.8828ZM65.9203 50.7531C65.9166 51.3606 65.6736 51.9421 65.2439 52.3715C64.8142 52.8009 64.2325 53.0436 63.625 53.0469H54.6406C54.0329 53.0469 53.4501 52.8055 53.0204 52.3758C52.5906 51.946 52.3492 51.3632 52.3492 50.7555C52.3492 50.1478 52.5906 49.5649 53.0204 49.1352C53.4501 48.7055 54.0329 48.4641 54.6406 48.4641H63.6281C64.2345 48.4674 64.8152 48.7095 65.2442 49.138C65.6733 49.5664 65.9162 50.1468 65.9203 50.7531ZM59.1328 39.961C59.8969 39.963 60.6291 40.2675 61.1693 40.8079C61.7095 41.3482 62.0138 42.0805 62.0156 42.8445C62.0219 43.2271 61.952 43.607 61.81 43.9622C61.668 44.3175 61.4567 44.6409 61.1884 44.9136C60.9201 45.1863 60.6002 45.403 60.2474 45.5508C59.8945 45.6987 59.5158 45.7748 59.1332 45.7748C58.7506 45.7748 58.3719 45.6987 58.019 45.5508C57.6662 45.403 57.3463 45.1863 57.078 44.9136C56.8098 44.6409 56.5984 44.3175 56.4564 43.9622C56.3144 43.607 56.2445 43.2271 56.2508 42.8445C56.2514 42.0802 56.5552 41.3474 57.0955 40.8068C57.6358 40.2662 58.3685 39.962 59.1328 39.961ZM11.6508 30.9524C11.5907 30.7485 11.4838 30.5615 11.3387 30.4062C11.1936 30.2509 11.0142 30.1316 10.8148 30.0578C9.85805 29.7013 9.0332 29.0606 8.45099 28.2218C7.86879 27.383 7.55708 26.3862 7.55769 25.3651C7.55831 24.3441 7.87123 23.3476 8.45445 22.5095C9.03767 21.6714 9.8633 21.0318 10.8205 20.6764C11.7777 20.321 12.8208 20.2669 13.8096 20.5214C14.7985 20.7758 15.6858 21.3267 16.3526 22.1C17.0194 22.8732 17.4337 23.832 17.5399 24.8475C17.6461 25.863 17.4392 26.8867 16.9469 27.7813C16.8439 27.9672 16.7856 28.1745 16.7766 28.3869C16.7677 28.5993 16.8083 28.8108 16.8953 29.0047L22.6258 41.7625H14.8438L11.6508 30.9524ZM4.49219 54.4813V44.4969H53.7656C53.9038 44.9284 54.0896 45.3432 54.3195 45.7336C53.0429 45.8145 51.8452 46.3789 50.9701 47.3119C50.095 48.2449 49.6084 49.4763 49.6094 50.7555C49.6197 51.5501 49.8087 52.3322 50.1625 53.0438H48.1094C47.311 53.0434 46.5204 53.2003 45.7827 53.5057C45.045 53.811 44.3748 54.2588 43.8103 54.8234C43.2458 55.3879 42.7981 56.0582 42.4929 56.7959C42.1876 57.5337 42.0307 58.3243 42.0312 59.1227C42.0376 60.3172 42.3904 61.4841 43.0469 62.482C41.6553 62.6 40.3325 63.1386 39.2542 64.0262C38.176 64.9139 37.3933 66.1085 37.0102 67.4516H17.4609C14.0223 67.4476 10.7257 66.0798 8.29443 63.6482C5.86313 61.2166 4.4957 57.9199 4.49219 54.4813ZM93.7766 79.6336H6.22344C5.76428 79.6336 5.32393 79.4512 4.99926 79.1265C4.67459 78.8019 4.49219 78.3615 4.49219 77.9024C4.49219 77.4432 4.67459 77.0029 4.99926 76.6782C5.32393 76.3535 5.76428 76.1711 6.22344 76.1711H93.7766C94.2357 76.1711 94.6761 76.3535 95.0007 76.6782C95.3254 77.0029 95.5078 77.4432 95.5078 77.9024C95.5078 78.3615 95.3254 78.8019 95.0007 79.1265C94.6761 79.4512 94.2357 79.6336 93.7766 79.6336Z" fill="#77846E"/>
</svg>
