<svg width="100" height="100" viewBox="0 0 100 100" fill="none" xmlns="http://www.w3.org/2000/svg">
<g clip-path="url(#clip0_223_25)">
<path d="M78.9966 98.4427L78.5312 91.075C78.3519 88.2435 77.3351 85.5668 75.5908 83.3336C75.0925 82.6959 74.1722 82.5824 73.5345 83.081C72.897 83.5791 72.7839 84.4996 73.282 85.1371C74.6615 86.9029 75.4654 89.0203 75.6074 91.2595L75.974 97.0701H24.0258L24.3924 91.2603C24.5807 88.291 25.9164 85.5765 28.1534 83.617C29.4797 82.4556 31.0856 81.6189 32.7979 81.1965L40.709 79.2412C41.7609 78.9809 42.4957 78.0434 42.4957 76.9617V71.3168C45.033 72.3348 47.6336 72.8854 50 72.8854C52.3346 72.8854 54.9039 72.3475 57.4144 71.3525V76.9383C57.4144 78.0215 58.1484 78.9596 59.2 79.2199L67.2041 81.1969C67.8836 81.3639 68.5535 81.5988 69.1953 81.8951C69.3941 81.9871 69.6029 82.0305 69.8085 82.0305C70.3621 82.0305 70.8919 81.715 71.1394 81.1795C71.4785 80.4449 71.1582 79.5746 70.4236 79.2355C69.6123 78.8607 68.7642 78.5635 67.9048 78.3523L60.3443 76.4848V69.9647C64.6804 67.558 68.2634 63.9322 70.4923 59.6715C70.8673 58.9547 70.5902 58.0696 69.8734 57.6946C69.1562 57.319 68.2714 57.5965 67.8964 58.3135C65.8113 62.2996 62.3726 65.6623 58.214 67.7818C55.4648 69.1838 52.5478 69.9559 50.0002 69.9559C47.4213 69.9559 44.4748 69.1684 41.7012 67.7375C37.675 65.6664 34.3141 62.4086 32.2375 58.5641C31.8532 57.8522 30.9647 57.5869 30.2526 57.9715C29.5407 58.3561 29.2754 59.2448 29.66 59.9565C31.876 64.0592 35.3737 67.5672 39.5664 69.9147V76.5061L32.0961 78.3521C29.9319 78.8857 27.901 79.9439 26.2237 81.4131C23.3956 83.8904 21.7071 87.3217 21.469 91.0754L21.0042 98.4429C20.9786 98.8466 21.1213 99.2431 21.3981 99.5378C21.6749 99.8326 22.0614 99.9999 22.4661 99.9999H77.5347C77.9392 99.9999 78.3257 99.8328 78.6027 99.5378C78.8796 99.2427 79.0222 98.8464 78.9966 98.4427Z" fill="#77846E"/>
<path d="M93.1179 22.9461C92.3089 22.9461 91.6531 23.6017 91.6531 24.4109V54.4552C91.6531 64.7304 80.7818 69.9432 74.3013 72.136C70.856 73.3022 69.0967 72.6831 68.7549 71.9821C68.5513 71.5651 68.8129 71.0083 69.391 70.628C71.8863 68.9874 81.9671 61.3132 81.9671 56.4831C81.9671 54.3015 81.7593 52.2079 81.5849 50.8361C81.4855 50.0538 81.0152 49.3575 80.3265 48.9734C79.6369 48.5882 78.7962 48.5542 78.0773 48.8808L70.2554 52.4353C69.6939 52.6905 69.042 52.5511 68.6342 52.0884C68.3793 51.7993 68.2576 51.4286 68.2914 51.045C68.3252 50.6612 68.5097 50.3177 68.8113 50.0775C70.2066 48.9657 71.3763 48.0866 72.3576 47.388C72.3689 47.3796 72.381 47.372 72.392 47.3634C74.716 45.7118 75.9644 45.0904 76.5742 44.8575C76.6031 44.8476 76.6318 44.8376 76.6599 44.8259C76.9404 44.7255 77.0605 44.7179 77.0769 44.7173H81.8738C82.6828 44.7173 83.3386 44.0617 83.3386 43.2525V25.2439C83.3386 24.4347 82.6828 23.7791 81.8738 23.7791C81.0648 23.7791 80.4089 24.4347 80.4089 25.2439V41.7874H78.0744C78.4761 40.0693 78.8289 37.8663 78.7275 35.6664C78.5841 32.5517 77.5357 30.1878 75.6818 28.7695C75.5238 23.5951 74.1703 19.3947 71.6533 16.275C69.859 14.051 67.5273 12.4262 64.7168 11.432C63.8078 6.73477 60.0754 2.55665 55.1611 0.850011C50.9266 -0.620299 42.2088 -1.4492 31.3971 9.52304C30.8293 10.0992 30.8362 11.0266 31.4124 11.5943C31.9885 12.1623 32.9161 12.1555 33.4838 11.5791C43.1649 1.7545 50.6184 2.37423 54.1994 3.61758C55.2203 3.97208 56.1395 4.44141 56.9594 4.98965C56.0203 4.95977 55.0662 5.04043 54.1285 5.23731C51.126 5.86895 48.2233 7.53633 45.2539 10.3352C44.6653 10.89 44.6377 11.8172 45.1926 12.406C45.4809 12.7117 45.8694 12.866 46.2588 12.866C46.6192 12.866 46.9803 12.7338 47.2633 12.4672C49.8291 10.0488 52.2721 8.62168 54.7313 8.10429C56.8447 7.66055 59.0389 7.98887 60.6779 8.97871C61.3963 10.2406 61.8203 11.5404 61.9486 12.7072C61.9965 13.131 62.0088 13.5465 61.985 13.9435C61.9531 14.4867 61.8555 15.0377 61.6922 15.5957C61.1785 17.3512 60.0146 19.1787 58.2127 21.0656C56.759 22.5881 55.0557 23.98 53.357 25.2103C53.3566 25.2107 53.3563 25.2111 53.3557 25.2115C49.8891 27.7252 45.4436 30.2603 40.1422 32.7468C35.033 35.1455 30.5889 39.5607 28.3676 44.3224C26.3231 42.9357 25.0444 42.3079 24.2186 42.0234C23.438 34.7806 23.8932 24.7213 29.8493 15.9916C30.3051 15.3234 30.1331 14.4121 29.4649 13.956C28.7965 13.5 27.8852 13.6723 27.4294 14.3406C21.1266 23.5781 20.4977 34.0857 21.2489 41.7872H19.5911V25.2437C19.5911 24.4345 18.9352 23.7789 18.1262 23.7789C17.3173 23.7789 16.6614 24.4345 16.6614 25.2437V43.2523C16.6614 44.0615 17.3173 44.7171 18.1262 44.7171H22.9217C22.9753 44.7185 24.0749 44.7896 28.1438 47.7488C28.1592 47.7605 28.1749 47.7718 28.1907 47.7829C29.0528 48.4111 30.0442 49.165 31.1891 50.0773C31.4905 50.3173 31.6752 50.6609 31.709 51.0446C31.7428 51.4282 31.6211 51.7987 31.3663 52.088C30.9584 52.5507 30.3065 52.6902 29.745 52.4349L21.9231 48.8804C21.204 48.5538 20.3634 48.5882 19.6737 48.973C18.985 49.3571 18.5145 50.0534 18.4153 50.8357C18.2409 52.2075 18.0331 54.3011 18.0331 56.4827C18.0331 61.3128 28.1137 68.987 30.6092 70.6276C31.1874 71.0077 31.4489 71.5647 31.2454 71.9817C30.9034 72.6823 29.144 73.3014 25.6987 72.1356C19.2184 69.9429 8.34716 64.73 8.34716 54.4548V24.4113C8.34716 23.6021 7.6913 22.9465 6.88232 22.9465C6.07334 22.9465 5.41748 23.6021 5.41748 24.4113V54.4554C5.41748 59.7239 7.73408 64.3581 12.3034 68.2292C16.3112 71.6249 21.2893 73.7372 24.7596 74.9116C26.4282 75.4762 27.859 75.7147 29.0657 75.7147C31.6649 75.7145 33.2245 74.6075 33.8784 73.2675C34.7336 71.5145 34.036 69.3751 32.219 68.1804C30.4547 67.0204 27.5651 64.7532 25.0862 62.3042C22.0462 59.3001 20.963 57.3276 20.963 56.4835C20.963 54.7433 21.1065 53.0525 21.2507 51.7937L28.5331 55.1028C30.2758 55.8944 32.2981 55.4622 33.5643 54.0257C34.3549 53.1288 34.7325 51.979 34.6278 50.7882C34.5229 49.5974 33.9502 48.5314 33.0151 47.7863C32.2122 47.1464 31.4776 46.5788 30.7979 46.0683C32.6286 41.7689 36.7602 37.5722 41.3873 35.3999C46.5412 32.9828 50.9283 30.5078 54.4426 28.0361C64.3693 31.6976 67.933 39.1788 69.8006 45.6232C68.9621 46.2406 68.0301 46.9538 66.9851 47.7863C66.05 48.5314 65.4771 49.5974 65.3724 50.7884C65.2676 51.9792 65.6453 53.1288 66.4359 54.0259C67.7017 55.4622 69.7238 55.8944 71.4672 55.103L78.7492 51.7939C78.8933 53.0525 79.0369 54.7437 79.0369 56.4837C79.0369 57.3278 77.9537 59.3005 74.9136 62.3044C72.4349 64.7536 69.5453 67.0206 67.7808 68.1805C65.9638 69.3753 65.2662 71.5147 66.1215 73.2677C66.7756 74.6079 68.3345 75.7151 70.9341 75.7151C72.1408 75.7151 73.572 75.4764 75.2402 74.912C78.7107 73.7376 83.6888 71.6251 87.6966 68.2296C92.2659 64.3587 94.5825 59.7243 94.5825 54.4558V24.4115C94.5827 23.6019 93.9269 22.9461 93.1179 22.9461ZM57.1732 25.9754C60.7033 23.0955 64.3502 19.1662 64.8646 14.6433C70.1248 17.0283 72.0468 21.967 72.5883 26.6107L72.0203 26.2107C71.3588 25.7449 70.4449 25.9035 69.9791 26.5648C69.5133 27.2263 69.6717 28.14 70.333 28.606L73.388 30.7582C73.4047 30.7699 73.4226 30.7777 73.4394 30.7886C73.4595 30.8015 73.4779 30.8164 73.4988 30.8283C76.4982 32.5601 76.1539 37.9939 74.8916 42.3911C74.2402 42.6978 73.4045 43.1626 72.3293 43.8605C70.4033 37.7003 66.6193 30.1269 57.1732 25.9754Z" fill="#77846E"/>
</g>
<defs>
<clipPath id="clip0_223_25">
<rect width="100" height="100" fill="white"/>
</clipPath>
</defs>
</svg>
