<svg width="100" height="100" viewBox="0 0 100 100" fill="none" xmlns="http://www.w3.org/2000/svg">
<path d="M70.217 7.4187C62.618 7.4187 55.5135 10.2806 50 15.5199C44.4865 10.2806 37.3818 7.4187 29.783 7.4187C13.3605 7.4187 0 21.1001 0 37.9169C0 47.6666 8.30918 59.8166 24.6971 74.0292C36.6787 84.4207 48.8289 92.1978 48.9502 92.2751C49.2703 92.4792 49.6352 92.5812 50 92.5812C50.3648 92.5812 50.7297 92.479 51.05 92.2749C51.1713 92.1976 63.3215 84.4205 75.3031 74.0291C91.6908 59.8164 100 47.6664 100 37.9169C100 21.1001 86.6395 7.4187 70.217 7.4187ZM72.7773 71.049C63.0342 79.5029 53.1721 86.1988 50 88.2953C46.8328 86.2025 36.9965 79.5251 27.2563 71.0779C11.9805 57.8298 3.90625 46.3628 3.90625 37.9169C3.90625 23.2539 15.5146 11.325 29.783 11.325C36.9561 11.325 43.6262 14.273 48.5645 19.6259C48.9342 20.0267 49.4547 20.2546 50 20.2546C50.5453 20.2546 51.0658 20.0267 51.4355 19.6259C56.374 14.2732 63.0439 11.3251 70.217 11.3251C84.4854 11.325 96.0938 23.2539 96.0938 37.9169C96.0938 46.3562 88.0311 57.813 72.7773 71.049Z" fill="#77846E"/>
<path d="M67.8474 18.2241L67.774 18.2368C66.7119 18.4254 66.0039 19.4393 66.1925 20.5014C66.3607 21.4479 67.1843 22.1131 68.1132 22.1131C68.2267 22.1131 68.3418 22.1032 68.457 22.0827L68.4959 22.076C69.5595 21.8969 70.2767 20.8895 70.0976 19.8258C69.9185 18.7618 68.9101 18.0455 67.8474 18.2241Z" fill="#77846E"/>
<path d="M85.7532 25.6607C83.3551 22.3664 79.9489 19.9126 76.1622 18.7515C75.1307 18.4349 74.0385 19.015 73.7223 20.0462C73.4061 21.0775 73.9858 22.1699 75.017 22.4861C81.259 24.4001 85.6184 30.5091 85.6184 37.3421C85.6184 38.4208 86.4928 39.2953 87.5715 39.2953C88.6502 39.2953 89.5247 38.4208 89.5245 37.3419C89.5245 33.0892 88.2204 29.0499 85.7532 25.6607Z" fill="#77846E"/>
</svg>
