<svg width="100" height="100" viewBox="0 0 100 100" fill="none" xmlns="http://www.w3.org/2000/svg">
<g clip-path="url(#clip0_71_332)">
<path d="M76.6667 0H23.3335C20.5769 0 18.3335 2.24336 18.3335 5C18.3335 7.75664 20.5769 10 23.3335 10H76.6669C79.4235 10 81.6669 7.75664 81.6669 5C81.6669 2.24336 79.4233 0 76.6667 0ZM76.6667 6.6666H23.3335C22.4151 6.6666 21.6669 5.91992 21.6669 5C21.6669 4.08008 22.4151 3.3334 23.3335 3.3334H76.6669C77.5853 3.3334 78.3335 4.08008 78.3335 5C78.3335 5.91992 77.5851 6.6666 76.6667 6.6666Z" fill="#77846E"/>
<path d="M76.6667 90H23.3335C20.5769 90 18.3335 92.2434 18.3335 95C18.3335 97.7566 20.5769 100 23.3335 100H76.6669C79.4235 100 81.6669 97.7566 81.6669 95C81.6669 92.2434 79.4233 90 76.6667 90ZM76.6667 96.6666H23.3335C22.4151 96.6666 21.6669 95.9199 21.6669 95C21.6669 94.0801 22.4151 93.3334 23.3335 93.3334H76.6669C77.5853 93.3334 78.3335 94.0801 78.3335 95C78.3335 95.9199 77.5851 96.6666 76.6667 96.6666Z" fill="#77846E"/>
<path d="M61.8768 43.8132C70.34 35.35 75 24.0982 75 12.1316V8.33335C75 7.41167 74.2533 6.66675 73.3334 6.66675H26.6666C25.7467 6.66675 25 7.41167 25 8.33335V12.1316C25 24.1 29.66 35.35 38.1217 43.8132L39.7967 45.4882C40.985 46.6765 41.6666 48.3199 41.6666 50C41.6666 51.68 40.985 53.3234 39.7982 54.5117L38.1232 56.1867C29.66 64.6499 25 75.8999 25 87.8683V91.6666C25 92.5882 25.7467 93.3332 26.6666 93.3332H73.3332C74.2531 93.3332 74.9998 92.5882 74.9998 91.6666V87.8683C74.9998 75.9017 70.3398 64.6499 61.8766 56.1867L60.2016 54.5117C58.9965 53.3066 58.3332 51.705 58.3332 50C58.3332 48.2949 58.9965 46.6933 60.2016 45.4882L61.8768 43.8132ZM57.8449 43.1316C56.01 44.965 55 47.4033 55 50C55 52.5966 56.01 55.0349 57.8449 56.8683L59.5199 58.5433C67.3533 66.3767 71.6666 76.7915 71.6666 87.8683V89.9999H28.3334V87.8683C28.3334 76.79 32.6467 66.3767 40.4783 58.5433L42.1533 56.8683C43.99 55.0349 45 52.5949 45 50C45 47.405 43.99 44.965 42.1551 43.1316L40.4801 41.4566C32.6467 33.6232 28.3334 23.2082 28.3334 12.1316V9.99995H71.6668V12.1316C71.6668 23.2083 67.3535 33.6232 59.5201 41.4566L57.8449 43.1316Z" fill="#77846E"/>
<path d="M64.085 28.0783C63.9166 27.6551 63.3434 26.6666 61.6666 26.6666C53.0067 26.6666 49.1483 24.8115 47.6182 23.7049C45.7098 22.3233 43.2616 21.9615 41.0631 22.7399C38.9649 23.4815 37.4282 25.1315 36.8498 27.2649C36.6998 27.8199 36.6731 28.1799 36.6731 28.1799C36.6481 28.5082 36.7198 28.8633 36.8815 29.1516C38.4432 31.9199 40.2448 34.8399 42.8381 37.4332L44.5114 39.1082C46.9764 41.5699 48.333 44.8465 48.333 48.3332C48.333 49.2549 49.0797 49.9998 49.9996 49.9998C50.9196 49.9998 51.6662 49.2549 51.6662 48.3332C51.6662 44.8483 53.0229 41.5715 55.4862 39.1082L57.1629 37.4315C57.5746 37.0215 58.1112 36.5149 58.7012 35.9615C63.01 31.91 64.8217 29.9383 64.085 28.0783ZM56.4151 33.5334C55.7985 34.1151 55.235 34.6451 54.8051 35.075L53.1283 36.7518C51.8334 38.0451 50.7834 39.5184 49.9983 41.1151C49.2133 39.5184 48.1633 38.0451 46.8682 36.7518L45.1948 35.0768C43.1481 33.0285 41.6498 30.7735 40.0914 28.0551C40.5032 26.6635 41.5698 26.0967 42.1748 25.8817C43.3381 25.4699 44.6432 25.6651 45.6631 26.4051C47.7864 27.9418 51.9731 29.7533 59.9932 29.9768C58.9633 31.1367 57.3467 32.6584 56.4151 33.5334Z" fill="#77846E"/>
<path d="M68.2183 84.8699C67.7999 79.4666 65.6333 77.2232 63.1267 74.6232C62.7884 74.2715 62.4351 73.9066 62.0733 73.5199C59.98 71.2832 57.0233 70 53.9583 70H46.0399C42.9767 70 40.0183 71.2834 37.9249 73.5199C37.5632 73.9066 37.2116 74.2699 36.8731 74.6217C34.3647 77.2217 32.1981 79.4666 31.7815 84.8717C31.7448 85.335 31.9048 85.7916 32.2198 86.1334C32.5364 86.4734 32.9782 86.6668 33.4431 86.6668H66.5564C67.0196 86.6668 67.463 86.4734 67.7796 86.1318C68.0948 85.79 68.2532 85.3316 68.2183 84.8699ZM35.3415 83.3334C35.9065 80.4234 37.2532 79.0301 39.2731 76.9367C39.6231 76.5734 39.9864 76.1951 40.3599 75.7967C41.8249 74.2301 43.8948 73.3334 46.0399 73.3334H53.9583C56.105 73.3334 58.1749 74.2316 59.6399 75.7951C60.0149 76.1984 60.3782 76.5734 60.73 76.9385C62.7483 79.0318 64.0933 80.4252 64.6601 83.3334H35.3415Z" fill="#77846E"/>
<path d="M49.95 53.3335C49.0301 53.3335 48.2834 54.0784 48.2834 55.0001V56.6667C48.2834 57.5884 49.0301 58.3333 49.95 58.3333C50.87 58.3333 51.6167 57.5884 51.6167 56.6667V55.0001C51.6167 54.0784 50.87 53.3335 49.95 53.3335Z" fill="#77846E"/>
<path d="M49.95 61.6665C49.0301 61.6665 48.2834 62.4114 48.2834 63.3331V64.9997C48.2834 65.9214 49.0301 66.6663 49.95 66.6663C50.87 66.6663 51.6167 65.9214 51.6167 64.9997V63.3331C51.6167 62.4116 50.87 61.6665 49.95 61.6665Z" fill="#77846E"/>
</g>
<defs>
<clipPath id="clip0_71_332">
<rect width="100" height="100" fill="white"/>
</clipPath>
</defs>
</svg>
