<svg width="129" height="115" viewBox="0 0 129 115" fill="none" xmlns="http://www.w3.org/2000/svg">
<g clip-path="url(#clip0_71_205)">
<path d="M39.146 113.601V113.93H74.8233" stroke="#77846E" stroke-width="2.5" stroke-miterlimit="10" stroke-linecap="round" stroke-linejoin="round"/>
<path d="M39.146 83.0601V28.894H43.6882H79.1178H83.6601V74.005" stroke="#77846E" stroke-width="2.5" stroke-miterlimit="10" stroke-linecap="round" stroke-linejoin="round"/>
<path d="M37.9898 82.7308H19.573C18.6646 82.7308 17.7561 83.0601 17.0954 83.6363L3.13831 95.408C1.32141 96.8897 1.32141 99.6886 3.13831 101.17L17.0954 113.024C17.7561 113.601 18.6646 113.93 19.573 113.93H37.9898C38.9808 113.93 39.8893 113.601 40.55 112.942L53.4334 101.088C55.0852 99.6063 55.0852 96.9721 53.4334 95.4903L40.55 83.6363C39.8893 83.0601 38.9808 82.7308 37.9898 82.7308Z" stroke="#77846E" stroke-width="2.5" stroke-miterlimit="10" stroke-linecap="round" stroke-linejoin="round"/>
<path d="M45.7529 98.3715H52.8554H53.5986" stroke="#77846E" stroke-width="2.5" stroke-miterlimit="10" stroke-linecap="round" stroke-linejoin="round"/>
<path d="M33.6126 98.3715H3.05566" stroke="#77846E" stroke-width="2.5" stroke-miterlimit="10" stroke-linecap="round" stroke-linejoin="round"/>
<path d="M28.74 82.7309V75.816" stroke="#77846E" stroke-width="2.5" stroke-miterlimit="10" stroke-linecap="round" stroke-linejoin="round"/>
<path d="M28.74 79.5204C28.74 79.5204 42.6971 79.5203 28.74 61.4924C28.74 61.5748 15.7739 77.9563 28.74 79.5204Z" stroke="#77846E" stroke-width="2.5" stroke-miterlimit="10" stroke-linecap="round" stroke-linejoin="round"/>
<path d="M97.3694 72.9348V66.02" stroke="#77846E" stroke-width="2.5" stroke-miterlimit="10" stroke-linecap="round" stroke-linejoin="round"/>
<path d="M97.3694 69.7243C97.3694 69.7243 111.326 69.7243 97.3694 51.6964C97.3694 51.7787 84.4033 68.1603 97.3694 69.7243Z" stroke="#77846E" stroke-width="2.5" stroke-miterlimit="10" stroke-linecap="round" stroke-linejoin="round"/>
<path d="M114.795 79.5204H79.5308C79.8611 77.9563 80.687 76.5569 81.8432 75.4044C82.4213 74.8282 82.9994 74.4166 83.6601 74.005C84.8989 73.2641 86.3854 72.8525 87.9546 72.8525H106.454C110.501 72.9349 113.969 75.7337 114.795 79.5204Z" stroke="#77846E" stroke-width="2.5" stroke-miterlimit="10" stroke-linecap="round" stroke-linejoin="round"/>
<path d="M61.6094 22.1439V15.3114" stroke="#77846E" stroke-width="2.5" stroke-miterlimit="10" stroke-linecap="round" stroke-linejoin="round"/>
<path d="M61.6094 19.0157C61.6094 19.0157 75.5665 19.0157 61.6094 0.987793C61.6094 0.987793 48.6433 17.4516 61.6094 19.0157Z" stroke="#77846E" stroke-width="2.5" stroke-miterlimit="10" stroke-linecap="round" stroke-linejoin="round"/>
<path d="M79.1178 28.894C78.2919 25.025 74.8233 22.1438 70.694 22.1438H61.6095H52.112C49.717 22.1438 47.5698 23.1316 46.0007 24.6957C44.8444 25.8482 44.0186 27.3299 43.6882 28.9763" stroke="#77846E" stroke-width="2.5" stroke-miterlimit="10" stroke-linecap="round" stroke-linejoin="round"/>
<path d="M45.7529 36.6321V52.849" stroke="#77846E" stroke-width="2.5" stroke-miterlimit="10" stroke-linecap="round" stroke-linejoin="round"/>
<path d="M114.134 98.2892V108.661H105.793" stroke="#77846E" stroke-width="2.5" stroke-miterlimit="10" stroke-linecap="round" stroke-linejoin="round"/>
<path d="M100.59 108.661H94.1484" stroke="#77846E" stroke-width="2.5" stroke-miterlimit="10" stroke-linecap="round" stroke-linejoin="round"/>
<path d="M118.511 79.5204H74.8232V113.93H118.511V79.5204Z" stroke="#77846E" stroke-width="2.5" stroke-miterlimit="10"/>
<path d="M0.990967 113.93H128.009" stroke="#77846E" stroke-width="2.5" stroke-miterlimit="10" stroke-linecap="round" stroke-linejoin="round"/>
</g>
<defs>
<clipPath id="clip0_71_205">
<rect width="129" height="115" fill="white"/>
</clipPath>
</defs>
</svg>
