<svg width="163" height="163" viewBox="0 0 163 163" fill="none" xmlns="http://www.w3.org/2000/svg">
<g clip-path="url(#clip0_71_321)">
<path d="M128.765 160.462L128.006 148.452C127.714 143.837 126.056 139.474 123.213 135.834C122.401 134.794 120.901 134.609 119.861 135.422C118.822 136.234 118.638 137.734 119.45 138.774C121.698 141.652 123.009 145.103 123.24 148.753L123.838 158.224H39.1623L39.7598 148.754C40.0667 143.914 42.244 139.49 45.8902 136.296C48.0521 134.403 50.6697 133.039 53.4607 132.35L66.3559 129.163C68.0705 128.739 69.2682 127.211 69.2682 125.448V116.247C73.404 117.906 77.6429 118.803 81.5002 118.803C85.3055 118.803 89.4935 117.926 93.5857 116.305V125.409C93.5857 127.175 94.7821 128.704 96.4962 129.129L109.543 132.351C110.65 132.623 111.742 133.006 112.788 133.489C113.113 133.639 113.453 133.71 113.788 133.71C114.69 133.71 115.554 133.196 115.957 132.323C116.51 131.125 115.988 129.707 114.791 129.154C113.468 128.543 112.086 128.059 110.685 127.714L98.3614 124.67V114.043C105.429 110.12 111.27 104.21 114.903 97.2647C115.514 96.0963 115.062 94.6535 113.894 94.0423C112.725 93.43 111.283 93.8824 110.671 95.0511C107.273 101.549 101.668 107.03 94.8891 110.485C90.4079 112.77 85.6532 114.028 81.5005 114.028C77.2969 114.028 72.4941 112.745 67.9731 110.412C61.4105 107.036 55.9322 101.726 52.5474 95.4596C51.9208 94.2992 50.4726 93.8668 49.3119 94.4937C48.1515 95.1205 47.7191 96.5691 48.346 97.7292C51.9581 104.417 57.6592 110.135 64.4935 113.961V124.705L52.3169 127.714C48.7891 128.584 45.4788 130.309 42.7448 132.703C38.1349 136.741 35.3827 142.334 34.9946 148.453L34.237 160.462C34.1953 161.12 34.428 161.766 34.8791 162.247C35.3302 162.727 35.9602 163 36.6199 163H126.382C127.041 163 127.671 162.728 128.123 162.247C128.574 161.766 128.806 161.12 128.765 160.462Z" fill="#77846E"/>
<path d="M151.782 37.4021C150.464 37.4021 149.395 38.4708 149.395 39.7898V88.762C149.395 105.51 131.674 114.007 121.111 117.582C115.495 119.483 112.628 118.473 112.07 117.331C111.739 116.651 112.165 115.743 113.107 115.124C117.175 112.449 133.607 99.9405 133.607 92.0675C133.607 88.5114 133.268 85.0989 132.983 82.8628C132.821 81.5877 132.055 80.4528 130.932 79.8266C129.808 79.1988 128.438 79.1434 127.266 79.6757L114.516 85.4695C113.601 85.8856 112.538 85.6583 111.874 84.9041C111.458 84.4329 111.26 83.8287 111.315 83.2034C111.37 82.5778 111.671 82.0178 112.162 81.6263C114.437 79.8142 116.343 78.3812 117.943 77.2425C117.961 77.2288 117.981 77.2164 117.999 77.2023C121.787 74.5103 123.822 73.4973 124.816 73.1178C124.863 73.1016 124.91 73.0853 124.956 73.0662C125.413 72.9026 125.609 72.8902 125.635 72.8892H133.454C134.773 72.8892 135.842 71.8205 135.842 70.5015V41.1476C135.842 39.8286 134.773 38.7599 133.454 38.7599C132.136 38.7599 131.067 39.8286 131.067 41.1476V68.1135H127.261C127.916 65.3129 128.491 61.7221 128.326 58.1362C128.092 53.0593 126.383 49.2062 123.361 46.8943C123.104 38.46 120.898 31.6134 116.795 26.5282C113.87 22.9031 110.07 20.2546 105.488 18.6342C104.007 10.9777 97.9229 4.16734 89.9127 1.38552C83.0104 -1.01109 68.8004 -2.3622 51.1774 15.5226C50.2519 16.4617 50.263 17.9733 51.2022 18.8988C52.1414 19.8245 53.6532 19.8134 54.5787 18.8739C70.3588 2.85984 82.508 3.86999 88.3451 5.89666C90.0092 6.47448 91.5074 7.2395 92.8438 8.13313C91.3132 8.08442 89.758 8.21591 88.2296 8.53681C83.3354 9.56638 78.604 12.2842 73.764 16.8463C72.8044 17.7508 72.7595 19.262 73.664 20.2219C74.1339 20.7201 74.7671 20.9716 75.4019 20.9716C75.9893 20.9716 76.5779 20.7561 77.0392 20.3215C81.2215 16.3796 85.2036 14.0533 89.212 13.21C92.657 12.4867 96.2334 13.0219 98.9051 14.6353C100.076 16.6922 100.767 18.8109 100.976 20.7128C101.054 21.4036 101.074 22.0807 101.036 22.728C100.984 23.6133 100.824 24.5114 100.558 25.421C99.721 28.2824 97.8239 31.2613 94.8868 34.3369C92.5172 36.8185 89.7408 39.0875 86.972 41.0928C86.9714 41.0935 86.9708 41.0941 86.9698 41.0947C81.3193 45.192 74.0731 49.3243 65.4319 53.3773C57.1039 57.2871 49.86 64.4839 46.2393 72.2455C42.9067 69.9851 40.8224 68.9619 39.4764 68.4981C38.2039 56.6924 38.946 40.2956 48.6544 26.0663C49.3974 24.9772 49.117 23.4917 48.0278 22.7483C46.9384 22.005 45.453 22.2858 44.7099 23.3752C34.4365 38.4323 33.4114 55.5597 34.6358 68.1132H31.9335V41.1473C31.9335 39.8283 30.8645 38.7596 29.5459 38.7596C28.2272 38.7596 27.1582 39.8283 27.1582 41.1473V70.5012C27.1582 71.8202 28.2272 72.8889 29.5459 72.8889H37.3625C37.4497 72.8911 39.2421 73.007 45.8745 77.8305C45.8996 77.8496 45.9251 77.868 45.9509 77.8862C47.3561 78.91 48.9721 80.1389 50.8383 81.6259C51.3295 82.0172 51.6307 82.5772 51.6858 83.2028C51.7409 83.828 51.5425 84.432 51.1271 84.9034C50.4623 85.6576 49.3997 85.8849 48.4844 85.4688L35.7347 79.675C34.5625 79.1427 33.1923 79.1988 32.0682 79.8259C30.9457 80.4521 30.1788 81.5871 30.017 82.8621C29.7327 85.0983 29.394 88.5108 29.394 92.0668C29.394 99.9398 45.8254 112.449 49.8931 115.123C50.8355 115.743 51.2617 116.65 50.93 117.33C50.3726 118.472 47.5048 119.481 41.8889 117.581C31.3261 114.007 13.6059 105.51 13.6059 88.7613V39.7904C13.6059 38.4715 12.5369 37.4027 11.2183 37.4027C9.89961 37.4027 8.83057 38.4715 8.83057 39.7904V88.7623C8.83057 97.35 12.6066 104.904 20.0546 111.214C26.5873 116.749 34.7017 120.192 40.3583 122.106C43.078 123.026 45.4103 123.415 47.3771 123.415C51.6138 123.415 54.1559 121.61 55.2218 119.426C56.6159 116.569 55.4787 113.081 52.517 111.134C49.6413 109.243 44.9312 105.548 40.8906 101.556C35.9353 96.6592 34.1697 93.4441 34.1697 92.0681C34.1697 89.2315 34.4037 86.4755 34.6386 84.4237L46.509 89.8176C49.3497 91.1079 52.646 90.4034 54.7099 88.0619C55.9986 86.6 56.614 84.7258 56.4433 82.7848C56.2724 80.8437 55.339 79.1061 53.8147 77.8916C52.5059 76.8486 51.3085 75.9235 50.2006 75.0913C53.1846 68.0833 59.9192 61.2427 67.4614 57.7019C75.8623 53.7619 83.0132 49.7277 88.7415 45.6988C104.922 51.6671 110.731 63.8615 113.775 74.3658C112.408 75.3721 110.889 76.5347 109.186 77.8916C107.662 79.1061 106.728 80.8437 106.557 82.7851C106.386 84.7261 107.002 86.6 108.291 88.0622C110.354 90.4034 113.65 91.1079 116.492 89.8179L128.361 84.424C128.596 86.4755 128.83 89.2322 128.83 92.0684C128.83 93.4444 127.065 96.6598 122.109 101.556C118.069 105.548 113.359 109.244 110.483 111.134C107.521 113.082 106.384 116.569 107.778 119.426C108.844 121.611 111.385 123.416 115.623 123.416C117.59 123.416 119.922 123.027 122.642 122.107C128.299 120.192 136.413 116.749 142.946 111.214C150.394 104.905 154.17 97.3506 154.17 88.7629V39.7907C154.17 38.4711 153.101 37.4021 151.782 37.4021ZM93.1924 42.3398C98.9465 37.6456 104.891 31.2409 105.729 23.8687C114.303 27.7561 117.436 35.8061 118.319 43.3754L117.393 42.7235C116.315 41.9642 114.825 42.2227 114.066 43.3006C113.307 44.3789 113.565 45.8682 114.643 46.6278L119.623 50.1358C119.65 50.1549 119.679 50.1676 119.706 50.1855C119.739 50.2065 119.769 50.2307 119.803 50.2501C124.692 53.073 124.131 61.93 122.073 69.0976C121.012 69.5974 119.649 70.3551 117.897 71.4926C114.757 61.4515 108.59 49.1069 93.1924 42.3398Z" fill="#77846E"/>
</g>
<defs>
<clipPath id="clip0_71_321">
<rect width="163" height="163" fill="white"/>
</clipPath>
</defs>
</svg>
