<svg width="77" height="136" viewBox="0 0 77 136" fill="none" xmlns="http://www.w3.org/2000/svg">
<g clip-path="url(#clip0_71_245)">
<path d="M30.7505 22.2395C31.0803 22.2395 31.41 22.3222 31.7398 22.3222C33.9657 22.5702 36.0267 23.3143 37.758 24.4717" stroke="#77846E" stroke-width="2.5" stroke-miterlimit="10" stroke-linecap="round" stroke-linejoin="round"/>
<path d="M31.8222 22.3222C33.471 20.0899 34.5427 16.9483 34.5427 13.476C34.5427 11.9051 34.2954 10.3343 33.8832 8.92884C32.5641 4.29906 29.2665 0.992065 25.3918 0.992065C20.3629 0.992065 16.3232 6.53127 16.3232 13.476C16.3232 18.5191 18.5492 22.9009 21.6819 24.8024C24.0727 23.1489 26.8757 22.2395 30.0085 22.2395C30.2558 22.2395 30.5031 22.2395 30.7504 22.2395" stroke="#77846E" stroke-width="2.5" stroke-miterlimit="10" stroke-linecap="round" stroke-linejoin="round"/>
<path d="M42.2923 26.3732C42.7869 25.9598 43.1991 25.4638 43.6114 24.9677C44.9304 23.3142 45.8373 21.082 46.167 18.6844C46.3319 17.8577 46.3319 17.0309 46.3319 16.2869C46.2495 11.2437 43.6938 7.19263 39.9015 6.61391C37.758 6.28321 35.6146 7.19263 33.8833 8.9288" stroke="#77846E" stroke-width="2.5" stroke-miterlimit="10" stroke-linecap="round" stroke-linejoin="round"/>
<path d="M48.2279 29.4322C48.805 29.4322 49.4645 29.2668 50.0416 29.1015C52.0202 28.3574 53.8339 26.3732 54.6583 23.7276C54.8232 23.2316 54.9881 22.6528 55.0705 22.1568C55.6476 18.6845 54.411 15.4601 51.7729 14.5507C49.9592 13.972 47.8982 14.6334 46.3318 16.2042" stroke="#77846E" stroke-width="2.5" stroke-miterlimit="10" stroke-linecap="round" stroke-linejoin="round"/>
<path d="M55.0706 22.1568C56.5545 21.5781 58.0384 21.5781 59.2751 22.4048C61.3361 23.8103 61.5834 27.0346 60.017 29.9282C59.8521 30.1763 59.6873 30.4243 59.5224 30.6723C58.7804 31.8297 57.7911 32.7392 56.7194 33.3179C56.1423 33.6486 55.6476 33.8966 55.0706 33.9793" stroke="#77846E" stroke-width="2.5" stroke-miterlimit="10" stroke-linecap="round" stroke-linejoin="round"/>
<path d="M60.017 29.9282C61.5834 29.2668 63.3971 29.4322 64.4688 30.5896C66.0352 32.1604 65.7879 35.0541 63.8093 36.9556C62.6551 38.113 61.2536 38.6091 59.9346 38.6091" stroke="#77846E" stroke-width="2.5" stroke-miterlimit="10" stroke-linecap="round" stroke-linejoin="round"/>
<path d="M27.2054 75.978C27.4527 79.285 27.4527 82.592 26.9581 85.899C24.8146 100.532 25.639 96.564 23.0833 112.19C22.836 113.347 22.6711 114.504 22.6711 115.745C22.7536 123.599 28.6893 130.461 36.5212 131.37C42.2097 132.114 47.4035 129.799 50.7011 125.831" stroke="#77846E" stroke-width="2.5" stroke-miterlimit="10" stroke-linecap="round" stroke-linejoin="round"/>
<path d="M55.2355 102.599C55.7302 96.8121 56.3897 90.8595 57.2966 84.8243C58.7805 74.4073 60.924 63.8249 63.8919 54.2346C65.788 48.1993 63.727 42.9908 60.0171 38.6091C58.9454 37.369 57.7912 36.2115 56.5546 35.1367C56.1424 34.7234 55.6478 34.3927 55.1531 33.9793C53.5867 32.7392 51.8555 31.5817 50.0418 30.5069C49.4647 30.1762 48.8051 29.7629 48.228 29.4322C47.0739 28.7708 45.8373 28.1094 44.6831 27.5307C43.8587 27.1173 43.0343 26.7039 42.2098 26.3732C40.6435 25.6291 39.1595 25.0504 37.8405 24.4717C34.2131 23.0662 31.8223 22.3221 31.8223 22.3221" stroke="#77846E" stroke-width="2.5" stroke-miterlimit="10" stroke-linecap="round" stroke-linejoin="round"/>
<path d="M21.6819 24.8024C17.8072 27.448 15.334 31.9124 15.334 36.9556C15.334 40.0145 16.2408 42.8255 17.8072 45.1404C17.8072 45.1404 17.8072 45.1404 17.8897 45.223C18.137 45.6364 19.1263 47.5379 20.4453 50.5969" stroke="#77846E" stroke-width="2.5" stroke-miterlimit="10" stroke-linecap="round" stroke-linejoin="round"/>
<path d="M15.2515 35.8809C15.2515 35.8809 -2.88551 47.538 1.7312 78.045" stroke="#77846E" stroke-width="2.5" stroke-miterlimit="10" stroke-linecap="round" stroke-linejoin="round"/>
<path d="M17.8896 85.403C22.6712 83.0054 25.4742 79.6158 27.2055 75.9781C29.3489 71.431 29.6787 66.5531 29.5963 63.4115C29.5138 61.1793 30.0909 58.8644 31.2451 56.9629C34.4603 51.6717 39.9014 41.0066 34.7901 37.7823C30.5856 35.0541 24.4025 43.6522 20.3629 50.5969C17.8072 54.896 16.0759 58.6164 16.0759 58.6164" stroke="#77846E" stroke-width="2.5" stroke-miterlimit="10" stroke-linecap="round" stroke-linejoin="round"/>
<path d="M10.3876 52.8291C10.3876 52.8291 6.84263 58.7817 7.41972 70.1908" stroke="#77846E" stroke-width="2.5" stroke-miterlimit="10" stroke-linecap="round" stroke-linejoin="round"/>
<path d="M26.8757 34.0619C26.8757 34.0619 36.0267 26.5385 41.5503 38.9397" stroke="#77846E" stroke-width="2.5" stroke-miterlimit="10" stroke-linecap="round" stroke-linejoin="round"/>
<path d="M31.9045 91.8517C31.9045 91.8517 34.2953 79.0371 46.002 85.4031" stroke="#77846E" stroke-width="2.5" stroke-miterlimit="10" stroke-linecap="round" stroke-linejoin="round"/>
<path d="M61.0888 134.925C61.0888 134.925 50.2066 131.205 46.5792 115.497C46.0846 113.347 45.2601 111.28 44.106 109.379C40.6434 103.839 34.0482 91.8516 38.9122 88.8753C45.2601 85.0723 59.1102 108.552 59.1102 108.552" stroke="#77846E" stroke-width="2.5" stroke-miterlimit="10" stroke-linecap="round" stroke-linejoin="round"/>
<path d="M57.2964 84.8243C57.2964 84.8243 77.2471 95.4894 75.9281 126.327" stroke="#77846E" stroke-width="2.5" stroke-miterlimit="10" stroke-linecap="round" stroke-linejoin="round"/>
</g>
<defs>
<clipPath id="clip0_71_245">
<rect width="77" height="136" fill="white"/>
</clipPath>
</defs>
</svg>
