<svg width="122" height="108" viewBox="0 0 122 108" fill="none" xmlns="http://www.w3.org/2000/svg">
<g clip-path="url(#clip0_71_225)">
<path d="M14.8478 93.8156C14.8478 93.8156 18.7247 91.4931 15.0953 81.2074C11.4658 70.9216 27.056 35.1705 29.0358 33.0968C32.8302 29.364 33.4076 37.9078 27.9634 53.3364" stroke="#77846E" stroke-width="2.5" stroke-miterlimit="10" stroke-linecap="round" stroke-linejoin="round"/>
<path d="M31.9229 38.0737C31.9229 38.0737 36.0473 24.47 39.4293 24.6359C43.6362 24.9677 40.7491 34.7557 34.8924 52.8387" stroke="#77846E" stroke-width="2.5" stroke-miterlimit="10" stroke-linecap="round" stroke-linejoin="round"/>
<path d="M40.6665 33.0967C40.6665 33.0967 42.8937 21.3179 46.1107 21.235C51.39 21.0691 45.7808 42.47 41.9038 54.4147" stroke="#77846E" stroke-width="2.5" stroke-miterlimit="10" stroke-linecap="round" stroke-linejoin="round"/>
<path d="M47.4306 33.2626C47.4306 33.2626 48.5855 23.0599 51.72 25.0507C55.597 27.4562 51.6375 51.0967 47.3481 68.5161" stroke="#77846E" stroke-width="2.5" stroke-miterlimit="10" stroke-linecap="round" stroke-linejoin="round"/>
<path d="M50.3177 55.2441C50.3177 55.2441 54.3597 48.6911 57.4117 50.8478C60.4638 53.0045 54.1122 59.1428 53.0399 69.9262C52.215 78.4699 45.7809 85.4377 40.5016 88.8386C37.0371 91.0782 34.7275 94.6451 34.5625 98.7925C34.5625 98.8755 34.5625 98.9584 34.5625 98.9584" stroke="#77846E" stroke-width="2.5" stroke-miterlimit="10" stroke-linecap="round" stroke-linejoin="round"/>
<path d="M20.7045 82.8663C20.7045 82.8663 18.6423 79.6313 20.457 72.5806" stroke="#77846E" stroke-width="2.5" stroke-miterlimit="10" stroke-linecap="round" stroke-linejoin="round"/>
<path d="M20.9519 69.5944L22.0243 65.1981" stroke="#77846E" stroke-width="2.5" stroke-miterlimit="10" stroke-linecap="round" stroke-linejoin="round"/>
<path d="M106.41 94.0646C106.41 94.0646 102.533 91.742 106.162 81.4563C109.792 71.1705 94.2016 35.4194 92.2218 33.3457C88.4274 29.6129 87.85 38.1567 93.2942 53.5853" stroke="#77846E" stroke-width="2.5" stroke-miterlimit="10" stroke-linecap="round" stroke-linejoin="round"/>
<path d="M89.3347 38.3226C89.3347 38.3226 85.2103 24.7189 81.8283 24.8848C77.6214 25.2166 80.5085 35.0046 86.3651 53.0876" stroke="#77846E" stroke-width="2.5" stroke-miterlimit="10" stroke-linecap="round" stroke-linejoin="round"/>
<path d="M80.5085 33.3456C80.5085 33.3456 78.2813 21.5668 75.0643 21.4839C69.7851 21.318 75.3943 42.7189 79.2712 54.6636" stroke="#77846E" stroke-width="2.5" stroke-miterlimit="10" stroke-linecap="round" stroke-linejoin="round"/>
<path d="M73.7444 33.5115C73.7444 33.5115 72.5896 23.3088 69.4551 25.2996C65.5781 27.7051 69.5375 51.3457 73.8269 68.765" stroke="#77846E" stroke-width="2.5" stroke-miterlimit="10" stroke-linecap="round" stroke-linejoin="round"/>
<path d="M70.8574 55.493C70.8574 55.493 66.8154 48.94 63.7634 51.0967C60.7113 53.2534 67.0629 59.3917 68.1353 70.1751C68.9601 78.7188 75.3942 85.6866 80.6735 89.0875C84.138 91.3271 86.4476 94.894 86.6126 99.0414C86.6126 99.1244 86.6126 99.2073 86.6126 99.2073" stroke="#77846E" stroke-width="2.5" stroke-miterlimit="10" stroke-linecap="round" stroke-linejoin="round"/>
<path d="M100.471 83.1152C100.471 83.1152 102.533 79.8802 100.718 72.8295" stroke="#77846E" stroke-width="2.5" stroke-miterlimit="10" stroke-linecap="round" stroke-linejoin="round"/>
<path d="M100.223 69.9263L99.2334 65.447" stroke="#77846E" stroke-width="2.5" stroke-miterlimit="10" stroke-linecap="round" stroke-linejoin="round"/>
<path d="M6.59898 106.922C3.05198 91.576 -8.00143 36.4147 16.4976 30.6083C38.1095 25.4654 42.8938 10.7004 43.5537 0.995361" stroke="#77846E" stroke-width="2.5" stroke-miterlimit="10" stroke-linecap="round" stroke-linejoin="round"/>
<path d="M78.4463 0.995361C79.1062 10.7004 83.808 25.4654 105.502 30.6083C130.001 36.4147 119.03 91.576 115.401 106.922" stroke="#77846E" stroke-width="2.5" stroke-miterlimit="10" stroke-linecap="round" stroke-linejoin="round"/>
</g>
<defs>
<clipPath id="clip0_71_225">
<rect width="122" height="108" fill="white"/>
</clipPath>
</defs>
</svg>
