<svg width="116" height="120" viewBox="0 0 116 120" fill="none" xmlns="http://www.w3.org/2000/svg">
<g clip-path="url(#clip0_71_263)">
<path d="M86.8146 13.2419H71.5623V2.96092C71.5623 1.8917 72.3867 1.06921 73.4585 1.06921H84.9183C85.9901 1.06921 86.8146 1.8917 86.8146 2.96092V13.2419Z" stroke="#77846E" stroke-width="2.5" stroke-miterlimit="10" stroke-linecap="round" stroke-linejoin="round"/>
<path d="M89.8649 21.0555H68.5117C67.6048 21.0555 66.8628 20.3153 66.8628 19.4106V14.8869C66.8628 13.9822 67.6048 13.2419 68.5117 13.2419H89.8649C90.7718 13.2419 91.5138 13.9822 91.5138 14.8869V19.4106C91.5138 20.3153 90.7718 21.0555 89.8649 21.0555Z" stroke="#77846E" stroke-width="2.5" stroke-miterlimit="10" stroke-linecap="round" stroke-linejoin="round"/>
<path d="M32.1536 119.013H112.208" stroke="#77846E" stroke-width="2.5" stroke-miterlimit="10" stroke-linecap="round" stroke-linejoin="round"/>
<path d="M69.5836 21.0555V54.6128C69.5836 54.6128 70.7378 64.1536 55.0733 77.231C43.3661 87.0185 42.789 112.186 59.278 119.013" stroke="#77846E" stroke-width="2.5" stroke-miterlimit="10" stroke-linecap="round" stroke-linejoin="round"/>
<path d="M87.7214 21.0555V54.6128C87.7214 54.6128 86.5672 64.1536 102.232 77.231C113.939 87.0185 114.516 112.186 98.027 119.013" stroke="#77846E" stroke-width="2.5" stroke-miterlimit="10" stroke-linecap="round" stroke-linejoin="round"/>
<path d="M87.7214 27.9644C87.7214 27.9644 108.827 17.9301 113.527 34.791C118.473 52.8033 109.817 69.7464 99.1813 74.4346" stroke="#77846E" stroke-width="2.5" stroke-miterlimit="10" stroke-linecap="round" stroke-linejoin="round"/>
<path d="M87.7214 35.6956C87.7214 35.6956 97.2026 28.7868 103.386 31.9122C109.075 34.7909 114.021 58.4784 94.6468 69.6641" stroke="#77846E" stroke-width="2.5" stroke-miterlimit="10" stroke-linecap="round" stroke-linejoin="round"/>
<path d="M69.5835 54.5305H87.7214" stroke="#77846E" stroke-width="2.5" stroke-miterlimit="10" stroke-linecap="round" stroke-linejoin="round"/>
<path d="M72.6341 64.647C72.6341 64.647 68.2645 73.0363 62.988 76.8197" stroke="#77846E" stroke-width="2.5" stroke-miterlimit="10" stroke-linecap="round" stroke-linejoin="round"/>
<path d="M86.897 113.502C86.897 113.502 103.139 114.654 103.139 104.784" stroke="#77846E" stroke-width="2.5" stroke-miterlimit="10" stroke-linecap="round" stroke-linejoin="round"/>
<path d="M77.251 113.502H82.7748" stroke="#77846E" stroke-width="2.5" stroke-miterlimit="10" stroke-linecap="round" stroke-linejoin="round"/>
<path d="M15.8294 68.7594C15.5821 67.5257 15.6645 66.1275 16.1592 64.7293L19.457 55.7642C19.9516 54.4483 21.683 54.1193 22.5899 55.2707L28.6908 62.6731C29.7626 63.989 30.3397 65.5518 30.3397 67.0322C30.4221 69.5819 29.1855 72.0494 26.9595 73.4476" stroke="#77846E" stroke-width="2.5" stroke-miterlimit="10" stroke-linecap="round" stroke-linejoin="round"/>
<path d="M29.2681 78.7114C31.1643 80.4386 33.885 80.9321 36.1934 80.1919C37.6774 79.7807 38.9966 78.8759 39.9859 77.4777L45.5922 69.6641C46.4166 68.5127 45.6746 66.95 44.273 66.7855L34.7094 65.8807C33.0605 65.7162 31.4941 66.1275 30.2574 66.8677" stroke="#77846E" stroke-width="2.5" stroke-miterlimit="10" stroke-linecap="round" stroke-linejoin="round"/>
<path d="M24.074 82.9061C23.2496 85.2913 23.7443 87.9232 25.3107 89.8971C26.2176 91.0486 27.6192 91.9533 29.2681 92.3646L38.5844 94.6675C39.9035 94.9965 41.1401 93.7628 40.7279 92.3646L37.9248 83.1528C37.595 81.9191 36.9355 80.9321 36.111 80.1096" stroke="#77846E" stroke-width="2.5" stroke-miterlimit="10" stroke-linecap="round" stroke-linejoin="round"/>
<path d="M25.3107 89.8972C24.816 91.3777 23.8267 92.6937 22.3427 93.5984L14.1806 98.6978C13.0264 99.438 11.4599 98.6155 11.3775 97.2173L11.0477 87.6765C10.9653 85.8671 11.6248 84.2221 12.6142 82.9061C14.1806 80.9322 16.7364 79.7807 19.3747 80.1919C19.4571 80.1919 19.5395 80.1919 19.622 80.1919" stroke="#77846E" stroke-width="2.5" stroke-miterlimit="10" stroke-linecap="round" stroke-linejoin="round"/>
<path d="M19.5395 80.0273C19.5395 80.1096 19.457 80.1096 19.457 80.1918" stroke="#77846E" stroke-width="2.5" stroke-miterlimit="10" stroke-linecap="round" stroke-linejoin="round"/>
<path d="M12.6141 82.9061C11.2125 82.7416 9.81096 82.1658 8.65673 81.0966L1.64891 74.6813C0.577128 73.7765 0.989353 72.0493 2.30847 71.6381L11.4599 68.7594C12.9439 68.2659 14.4279 68.3482 15.747 68.7594C18.1379 69.4996 20.0341 71.4736 20.6937 73.941" stroke="#77846E" stroke-width="2.5" stroke-miterlimit="10" stroke-linecap="round" stroke-linejoin="round"/>
<path d="M19.622 80.2742C20.5289 81.8369 22.1778 82.9061 24.074 82.9061H24.1564C26.7122 82.9061 28.7733 81.0967 29.268 78.6292C29.3505 78.3825 29.3505 78.0535 29.3505 77.7245C29.3505 75.8328 28.3611 74.2701 26.8771 73.3654C26.1351 72.8719 25.1458 72.6251 24.1564 72.6251C22.8373 72.6251 21.6831 73.1186 20.7762 73.9411C19.7044 74.8458 18.9624 76.244 18.9624 77.8067C18.9624 78.6292 19.1273 79.3695 19.5395 80.1097" stroke="#77846E" stroke-width="2.5" stroke-miterlimit="10" stroke-linecap="round" stroke-linejoin="round"/>
</g>
<defs>
<clipPath id="clip0_71_263">
<rect width="116" height="120" fill="white"/>
</clipPath>
</defs>
</svg>
