<svg width="136" height="65" viewBox="0 0 136 65" fill="none" xmlns="http://www.w3.org/2000/svg">
<g clip-path="url(#clip0_4_14)">
<path d="M26.2086 21.1279C25.9591 19.2724 25.665 17.5263 25.3368 15.8997C24.8411 18.3361 24.4308 21.0561 24.1231 23.9948C23.2684 25.2421 22.4616 26.5201 21.706 27.8322C21.4291 28.3141 21.1522 28.8027 20.8821 29.305C20.1094 28.4063 19.3026 27.5384 18.465 26.7046C18.1197 24.7944 17.9385 22.8296 17.9385 20.8238C17.9385 12.9303 20.7077 5.68263 25.3368 0.00341797C28.6976 4.13127 31.0839 9.08948 32.1335 14.5227C30.0035 16.5729 28.0206 18.7804 26.2086 21.1279Z" fill="#F1CD84"/>
<path d="M27.6241 62.5739C27.2002 61.8016 26.766 61.0259 26.3181 60.2503C26.2395 60.117 26.1643 59.9837 26.0856 59.847C24.954 57.889 23.8018 55.9857 22.6429 54.1541C21.4052 52.1893 20.1539 50.3065 18.9061 48.5091C16.1197 44.5009 13.347 40.9437 10.7145 37.9674C12.4342 43.0998 14.9573 48.9943 18.1573 55.2066C18.7454 56.3479 19.3573 57.4961 19.9864 58.6545C20.6326 59.8334 21.2992 61.0191 21.9864 62.2117C22.5129 63.124 23.0429 64.0261 23.583 64.9112C21.73 64.0022 19.9351 62.9566 18.2257 61.7777C18.2189 61.7709 18.212 61.7674 18.2086 61.764C13.2171 58.323 8.89913 53.7475 5.66491 48.1503C0.61187 39.406 -0.953957 29.6057 0.540075 20.3557C9.12135 23.6258 16.7009 29.7014 21.7505 38.1724C21.8565 38.3432 21.9557 38.5175 22.0582 38.6918C23.8805 41.8492 25.2514 45.1398 26.1848 48.4989C27.0395 51.5777 27.5352 54.7043 27.6754 57.8275C27.7472 59.4131 27.7301 60.9986 27.6207 62.5739H27.6241Z" fill="#F1CD84"/>
<path d="M47.3678 42.6522C43.4224 49.483 38.2566 55.169 32.3009 59.5942C32.3009 58.9347 32.2838 58.2752 32.2531 57.6225C32.1471 55.3194 31.8702 53.0231 31.4257 50.761C35.3711 42.9768 38.4993 35.5993 40.6634 29.1376C37.0531 33.2142 33.2445 38.1177 29.4291 43.6534C28.8274 42.0234 28.1368 40.4277 27.3573 38.8695C27.2958 38.7499 27.2377 38.6269 27.1727 38.5073C26.8137 37.7931 26.4274 37.0892 26.0274 36.3955C25.9111 36.2007 25.7949 36.0025 25.6752 35.8078C25.1351 34.9022 24.5607 34.0138 23.9556 33.1493C24.4684 32.1207 25.0154 31.1024 25.6 30.0909C26.0171 29.3699 26.4479 28.6626 26.8889 27.9689C28.6394 25.2182 30.5949 22.6724 32.7283 20.3351C38.7352 13.7401 46.1199 8.81269 54.1747 5.74756C56.1542 18.0286 54.0721 31.0409 47.3678 42.6522Z" fill="#F1CD84"/>
<path d="M69.163 61.8392C69.0229 61.6854 68.8553 61.5692 68.6639 61.4941C68.4724 61.4189 68.2639 61.3813 68.0417 61.3813C67.8194 61.3813 67.6109 61.4223 67.4194 61.5009C67.228 61.5795 67.0605 61.6991 66.9169 61.8528C66.7767 62.0066 66.6639 62.2014 66.5852 62.4269C66.5066 62.6524 66.469 62.9121 66.469 63.2026C66.469 63.4931 66.51 63.7527 66.5852 63.9749C66.6639 64.2004 66.7733 64.3917 66.9134 64.5421C67.0536 64.6959 67.2211 64.812 67.416 64.8872C67.6075 64.9624 67.8194 65 68.0382 65C68.257 65 68.4724 64.959 68.6639 64.8804C68.8553 64.8018 69.0229 64.6822 69.163 64.5284C69.2998 64.3747 69.4092 64.1833 69.4878 63.9578C69.563 63.7357 69.6041 63.4725 69.6041 63.1787C69.6041 62.8848 69.563 62.6285 69.4878 62.4064C69.4092 62.1843 69.2998 61.9929 69.163 61.8426V61.8392ZM68.0417 61.7982C68.216 61.7982 68.3767 61.8323 68.51 61.8973C68.6468 61.9622 68.7596 62.0579 68.8519 62.1775C68.9442 62.2971 69.016 62.4474 69.0639 62.6149C69.1152 62.7857 69.1391 62.9805 69.1391 63.1889C69.1391 63.3974 69.1152 63.5921 69.0673 63.763C69.0194 63.9339 68.9476 64.0808 68.8553 64.2004C68.763 64.32 68.6502 64.4122 68.5135 64.4806C68.3801 64.5455 68.2194 64.5797 68.0417 64.5797C67.8639 64.5797 67.6929 64.5455 67.5562 64.4806C67.4194 64.4157 67.3032 64.32 67.2143 64.2038C67.122 64.0842 67.0502 63.9373 67.0058 63.7664C66.9579 63.5921 66.934 63.4008 66.934 63.1923C66.934 62.9839 66.9579 62.7891 67.0058 62.6183C67.0536 62.4474 67.122 62.3005 67.2143 62.1809C67.3032 62.0613 67.416 61.969 67.5528 61.9041C67.6895 61.8392 67.8536 61.805 68.0382 61.805L68.0417 61.7982Z" fill="#F1CD84"/>
<path d="M72.2879 63.0181C72.3905 62.8575 72.4418 62.6627 72.4418 62.4372C72.4418 62.321 72.4247 62.2014 72.3905 62.0852C72.3529 61.9656 72.2845 61.8563 72.1888 61.764C72.093 61.6717 71.9597 61.6 71.799 61.5419C71.6383 61.4872 71.4332 61.4599 71.1905 61.4599H70.0725V64.9146H70.5204V63.4794H71.1494C71.2144 63.4794 71.2725 63.4794 71.3306 63.4725C71.3648 63.4725 71.399 63.4657 71.4332 63.4623L72.0896 64.9146H72.6059L71.8777 63.3529C72.0623 63.2709 72.2024 63.1582 72.2913 63.0181H72.2879ZM70.517 61.8768H71.1734C71.3409 61.8768 71.4811 61.8904 71.5871 61.9143C71.6896 61.9383 71.7717 61.9758 71.8298 62.0237C71.8879 62.0681 71.9255 62.1228 71.946 62.1877C71.97 62.2595 71.9836 62.3449 71.9836 62.444C71.9836 62.5431 71.97 62.6353 71.9494 62.7139C71.9289 62.7857 71.8913 62.8472 71.8366 62.8985C71.7819 62.9497 71.7067 62.9907 71.611 63.0181C71.5118 63.0488 71.3785 63.0625 71.2247 63.0625H70.517V61.8768Z" fill="#F1CD84"/>
<path d="M73.3785 61.4599H72.9272V64.9146H73.3785V61.4599Z" fill="#F1CD84"/>
<path d="M74.4144 63.3529H76.1102V62.919H74.4144V61.8836H76.1991V61.4599H73.9631V64.9146H76.1956L76.3016 64.4874H74.4144V63.3529Z" fill="#F1CD84"/>
<path d="M78.8179 64.0979L77.1085 61.4599H76.6709V64.9146H77.1119V62.2663L78.8248 64.9146H79.2624V61.4599H78.8179V64.0979Z" fill="#F1CD84"/>
<path d="M82.2778 61.4599H79.5461V61.8904H80.688V64.9146H81.1393V61.8904H82.2778V61.4599Z" fill="#F1CD84"/>
<path d="M83.1085 61.4599L81.7375 64.9146H82.2162L82.6059 63.9099H84.035L84.4316 64.9146H84.9171L83.5529 61.4599H83.1051H83.1085ZM82.7769 63.4828L83.3205 62.0852L83.8709 63.4828H82.7769Z" fill="#F1CD84"/>
<path d="M85.5939 61.4599H85.1426V64.9146H87.3033L87.4024 64.484H85.5939V61.4599Z" fill="#F1CD84"/>
<path d="M90.9171 63.2949C90.8316 63.2128 90.7188 63.1445 90.5889 63.0898C90.4624 63.0386 90.312 62.9976 90.141 62.9668L89.6761 62.8848C89.5496 62.8609 89.4436 62.8335 89.3615 62.8028C89.2863 62.772 89.2248 62.7379 89.1803 62.6969C89.1393 62.6593 89.1085 62.6114 89.0914 62.5568C89.0744 62.4987 89.0641 62.4269 89.0641 62.3449C89.0641 62.2663 89.0778 62.1911 89.1051 62.1262C89.1291 62.0613 89.1735 62.0066 89.2316 61.9588C89.2932 61.9075 89.3752 61.8699 89.4778 61.8392C89.5838 61.8084 89.7171 61.7948 89.8778 61.7948C90.0214 61.7948 90.141 61.8084 90.2368 61.8323C90.3291 61.8563 90.4077 61.8938 90.4658 61.9383C90.5239 61.9827 90.5718 62.0374 90.6094 62.1023C90.647 62.1706 90.6812 62.2526 90.712 62.3415L90.7359 62.4201L91.1564 62.3005L91.1325 62.2185C91.1017 62.116 91.0607 62.0169 91.0094 61.9212C90.9547 61.8187 90.8795 61.723 90.7804 61.6444C90.6846 61.5624 90.5581 61.4975 90.4111 61.453C90.2641 61.4052 90.0829 61.3813 89.8709 61.3813C89.7068 61.3813 89.5462 61.3984 89.3957 61.436C89.2453 61.4735 89.1085 61.5316 88.9957 61.6102C88.8795 61.6888 88.7838 61.7913 88.7154 61.9109C88.6436 62.0339 88.6094 62.1809 88.6094 62.3449C88.6094 62.5089 88.6333 62.6456 88.6812 62.7584C88.7325 62.8746 88.8043 62.9737 88.9034 63.0522C88.9957 63.1274 89.112 63.1889 89.2453 63.2334C89.3718 63.2778 89.5222 63.3154 89.6863 63.3427L90.0966 63.411C90.2333 63.435 90.3427 63.4657 90.4248 63.5033C90.5034 63.5409 90.5615 63.5819 90.5992 63.6297C90.6402 63.6776 90.6641 63.7288 90.6778 63.7835C90.6915 63.845 90.7017 63.9134 90.7017 63.9817C90.7017 64.0637 90.688 64.1423 90.6641 64.2175C90.6402 64.2858 90.6026 64.3473 90.5479 64.3986C90.4932 64.4498 90.4145 64.4943 90.3188 64.5284C90.2197 64.5626 90.0897 64.5797 89.9359 64.5797C89.6316 64.5797 89.4026 64.5284 89.2556 64.4293C89.112 64.3337 89.0197 64.1765 88.9752 63.9509L88.9615 63.8826H88.5205L88.5308 63.9783C88.5513 64.1628 88.6026 64.32 88.6812 64.4498C88.7598 64.5797 88.8658 64.6856 88.9889 64.7676C89.112 64.8496 89.2556 64.9077 89.4162 64.9419C89.5735 64.9761 89.7444 64.9932 89.9291 64.9932C90.1308 64.9932 90.3086 64.9658 90.4624 64.9146C90.6163 64.8633 90.7462 64.7915 90.8521 64.6993C90.9581 64.6104 91.0402 64.5011 91.0949 64.3781C91.1496 64.2551 91.1769 64.1252 91.1769 63.9885C91.1769 63.8382 91.1564 63.7049 91.1154 63.5921C91.0744 63.476 91.006 63.3735 90.9171 63.2914V63.2949Z" fill="#F1CD84"/>
<path d="M94.0111 62.9019C94.0487 62.772 94.0692 62.6319 94.0692 62.4918C94.0692 62.3517 94.0521 62.2253 94.0145 62.1023C93.9769 61.9724 93.9085 61.8597 93.8094 61.764C93.7137 61.6683 93.5803 61.5931 93.4162 61.5385C93.2555 61.4838 93.047 61.4599 92.8008 61.4599H91.6555V64.9146H92.1034V63.5853H92.7906C93.0401 63.5853 93.2453 63.558 93.406 63.4999C93.5701 63.4418 93.7068 63.3632 93.8025 63.2607C93.9017 63.1582 93.9701 63.0386 94.0111 62.9019ZM92.1034 61.8733H92.7906C92.9615 61.8733 93.1017 61.887 93.2111 61.9143C93.3137 61.9417 93.3957 61.9793 93.4538 62.0305C93.5119 62.0818 93.5496 62.1399 93.5735 62.215C93.5974 62.2936 93.6111 62.3927 93.6111 62.5055C93.6111 62.6183 93.6008 62.7105 93.5769 62.796C93.5564 62.8745 93.5188 62.9361 93.4641 62.9907C93.406 63.0454 93.3239 63.0898 93.2214 63.1206C93.1119 63.1547 92.9718 63.1684 92.794 63.1684H92.1034V61.8733Z" fill="#F1CD84"/>
<path d="M95.57 61.4599H95.1222L93.7512 64.9146H94.2299L94.6196 63.9099H96.0487L96.4453 64.9146H96.9307L95.5666 61.4599H95.57ZM94.7905 63.4828L95.3341 62.0852L95.8846 63.4828H94.7905Z" fill="#F1CD84"/>
<path d="M122.62 63.0933H100.886V63.2846H122.62V63.0933Z" fill="#F1CD84"/>
<path d="M66.5544 21.3876H70.9989C71.9357 21.3876 72.7015 21.473 73.3032 21.6473C73.9015 21.8215 74.3802 22.0607 74.7323 22.3683C75.0844 22.6724 75.3272 23.0346 75.4605 23.4481C75.5938 23.8616 75.6588 24.3024 75.6588 24.7705C75.6588 25.3104 75.5391 25.8093 75.2998 26.2706C75.0605 26.7319 74.6229 27.1146 73.987 27.4119C74.3938 27.593 74.7323 27.7946 74.9955 28.0236C75.2588 28.2525 75.4708 28.4951 75.6246 28.7514C75.7819 29.0111 75.8879 29.2776 75.9494 29.5613C76.0075 29.8415 76.0383 30.1285 76.0383 30.4155C76.0383 30.9418 75.9562 31.4407 75.7956 31.9088C75.6349 32.377 75.3682 32.7802 74.9955 33.1219C74.6229 33.4636 74.1374 33.7335 73.5391 33.9317C72.9408 34.1299 72.2024 34.229 71.3271 34.229H66.5579V21.3876H66.5544ZM71.2519 26.6567C72.1032 26.6567 72.6981 26.4995 73.0331 26.1886C73.3682 25.8776 73.5357 25.4266 73.5357 24.8388C73.5357 24.2511 73.3408 23.7864 72.9511 23.5164C72.5613 23.2465 71.8878 23.1132 70.9271 23.1132H68.6604V26.6567H71.2519ZM71.2519 32.4829C71.7682 32.4829 72.1955 32.435 72.5374 32.3394C72.8793 32.2437 73.1494 32.107 73.3477 31.9259C73.546 31.7448 73.6861 31.5295 73.7716 31.2766C73.8571 31.0238 73.8981 30.7436 73.8981 30.4326C73.8981 29.7834 73.7135 29.2913 73.3477 28.9496C72.9819 28.6079 72.3494 28.437 71.4502 28.437H68.6604V32.4829H71.2519Z" fill="#F1CD84"/>
<path d="M86.1853 31.4578C86.0178 32.4282 85.6041 33.18 84.9443 33.7165C84.2844 34.2495 83.3374 34.5161 82.0998 34.5161C80.6126 34.5161 79.481 34.0889 78.7083 33.2313C77.9356 32.3736 77.5459 31.1673 77.5459 29.6057C77.5459 28.8027 77.6553 28.0885 77.8775 27.4666C78.0997 26.8447 78.4109 26.3185 78.8143 25.8913C79.2143 25.4642 79.6963 25.143 80.2536 24.9209C80.8109 24.6988 81.4263 24.5894 82.0964 24.5894C82.8177 24.5894 83.44 24.6988 83.9665 24.9209C84.493 25.143 84.9306 25.4539 85.2793 25.8572C85.628 26.2604 85.8844 26.7388 86.052 27.2958C86.2195 27.8527 86.305 28.4747 86.305 29.1581V30.0568H79.5938C79.6177 30.9076 79.8331 31.5979 80.2399 32.1241C80.6468 32.6503 81.2656 32.9169 82.0929 32.9169C82.7391 32.9169 83.228 32.7904 83.5494 32.5376C83.8742 32.2847 84.0896 31.9259 84.1955 31.4578H86.175H86.1853ZM84.3152 28.6353C84.3152 27.8664 84.134 27.2616 83.775 26.8174C83.416 26.3731 82.8383 26.151 82.0485 26.151C81.2588 26.151 80.7186 26.3766 80.322 26.8242C79.9254 27.2753 79.6998 27.8767 79.6382 28.6318H84.3152V28.6353Z" fill="#F1CD84"/>
<path d="M93.9769 33.0057C93.6282 33.426 93.2043 33.7746 92.6983 34.0479C92.1957 34.3247 91.5837 34.4614 90.8624 34.4614C90.4179 34.4614 90.0042 34.4033 89.6213 34.2906C89.2384 34.1778 88.9034 34.0069 88.623 33.778C88.3427 33.549 88.1205 33.2586 87.9564 32.9066C87.7957 32.5547 87.7136 32.1378 87.7136 31.656C87.7136 31.0067 87.8572 30.4839 88.1444 30.0807C88.4316 29.6775 88.8076 29.3631 89.2692 29.1376C89.7307 28.9086 90.2504 28.7514 90.8248 28.6626C91.3991 28.5737 91.9769 28.5157 92.5513 28.4917L93.9359 28.42V28.0236C93.9359 27.3163 93.765 26.8276 93.4231 26.5577C93.0812 26.2877 92.6333 26.1544 92.0829 26.1544C91.447 26.1544 90.9752 26.2638 90.6709 26.4791C90.3632 26.6943 90.1649 27.0053 90.0692 27.4154L88.1991 27.2172C88.3666 26.3048 88.7803 25.6419 89.4401 25.2216C90.1 24.8013 91.006 24.5928 92.1581 24.5928C92.9034 24.5928 93.5154 24.6885 94.0009 24.8799C94.4863 25.0712 94.8727 25.3343 95.1598 25.6726C95.447 26.0075 95.6487 26.4073 95.7616 26.8686C95.8744 27.3299 95.9325 27.8357 95.9325 28.3892V34.2325H93.9701V33.0091L93.9769 33.0057ZM92.6265 29.8586C92.0145 29.8962 91.5188 29.9611 91.1427 30.0568C90.7632 30.1524 90.4726 30.2755 90.2709 30.4258C90.0658 30.5762 89.9324 30.7504 89.8675 30.9486C89.8025 31.1468 89.7683 31.3587 89.7683 31.5876C89.7683 31.9943 89.8983 32.3121 90.1547 32.541C90.4111 32.7699 90.794 32.8827 91.2966 32.8827C92.1957 32.8827 92.8624 32.6538 93.2932 32.1993C93.7239 31.7448 93.9427 31.1263 93.9427 30.3472V29.8073L92.6299 29.862L92.6265 29.8586Z" fill="#F1CD84"/>
<path d="M100.148 24.8764V30.7572C100.148 31.5363 100.278 32.0694 100.534 32.3564C100.791 32.6435 101.184 32.787 101.714 32.787C102.001 32.787 102.292 32.7323 102.586 32.6264C102.88 32.517 103.139 32.3633 103.369 32.1582C103.598 31.9532 103.782 31.7072 103.926 31.4201C104.069 31.1331 104.141 30.8085 104.141 30.4497V24.873H106.192V34.2256H104.196V32.8587C103.765 33.4328 103.297 33.8531 102.791 34.1162C102.288 34.3793 101.748 34.5126 101.17 34.5126C100.08 34.5126 99.2967 34.2324 98.8215 33.6686C98.3462 33.1048 98.1104 32.2402 98.1104 31.0784V24.873H100.145L100.148 24.8764Z" fill="#F1CD84"/>
<path d="M107.598 26.4927V24.873H109.075V22.3546H111.109V24.873H113.43V26.4927H111.109V31.386C111.109 31.8644 111.208 32.2129 111.406 32.4282C111.605 32.6435 111.895 32.7528 112.278 32.7528C112.483 32.7528 112.678 32.7426 112.863 32.7153C113.047 32.6913 113.232 32.6503 113.41 32.5888L113.717 34.1163C113.143 34.3076 112.517 34.4033 111.847 34.4033C110.815 34.4033 110.097 34.1368 109.687 33.6037C109.28 33.0706 109.075 32.271 109.075 31.2015V26.4893H107.598V26.4927Z" fill="#F1CD84"/>
<path d="M115.516 35.8829C115.817 35.9922 116.158 36.0435 116.541 36.0435C116.9 36.0435 117.184 35.958 117.386 35.7838C117.591 35.6095 117.782 35.2815 117.96 34.8031L118.302 33.9044L114.36 24.8764H116.736L119.311 31.6218L121.67 24.8764H123.902L120.179 34.3178C119.964 34.868 119.758 35.3532 119.567 35.7735C119.376 36.1938 119.16 36.5458 118.921 36.8362C118.682 37.1233 118.394 37.342 118.066 37.4923C117.734 37.6427 117.331 37.7179 116.852 37.7179C116.541 37.7179 116.254 37.6973 115.987 37.6563C115.724 37.6153 115.44 37.547 115.143 37.4513L115.523 35.8863L115.516 35.8829Z" fill="#F1CD84"/>
<path d="M66.5544 39.3718H75.1015V41.2409H68.7322V44.658H74.7426V46.5477H68.7322V50.3406H75.4434L75.1904 52.2098H66.5544V39.3683V39.3718Z" fill="#F1CD84"/>
<path d="M78.7188 49.3531C78.7529 49.664 78.8384 49.9203 78.9718 50.1185C79.1051 50.3167 79.2692 50.4739 79.4675 50.5935C79.6658 50.7131 79.8948 50.7951 80.1615 50.8361C80.4248 50.8771 80.7085 50.8976 81.006 50.8976C81.6897 50.8976 82.182 50.7951 82.4829 50.5935C82.7838 50.3884 82.9342 50.0912 82.9342 49.6948C82.9342 49.3838 82.8419 49.1207 82.6538 48.902C82.4692 48.6867 82.0863 48.5295 81.5119 48.4339C80.7666 48.3006 80.1136 48.1776 79.5495 48.0546C78.9854 47.935 78.5102 47.7709 78.1273 47.5591C77.7444 47.3506 77.4538 47.0807 77.2623 46.7492C77.0709 46.4212 76.9752 45.9736 76.9752 45.4097C76.9752 44.9792 77.0709 44.5862 77.2623 44.2308C77.4538 43.8789 77.7205 43.5782 78.0623 43.3321C78.4042 43.0861 78.8111 42.8982 79.2863 42.7649C79.7615 42.6316 80.2778 42.5667 80.8419 42.5667C81.5632 42.5667 82.1615 42.6385 82.6402 42.782C83.1188 42.9255 83.5085 43.1237 83.8094 43.3766C84.1103 43.6294 84.3359 43.9165 84.4932 44.2411C84.6504 44.5657 84.7701 44.9074 84.8522 45.2662L83.0162 45.5191C82.8726 45.0509 82.6538 44.7024 82.3598 44.4769C82.0658 44.2479 81.5769 44.1352 80.8931 44.1352C80.4966 44.1352 80.1718 44.1727 79.9222 44.2445C79.6692 44.3163 79.4675 44.4051 79.3205 44.5145C79.17 44.6238 79.0675 44.7434 79.0128 44.8733C78.9581 45.0065 78.9307 45.1364 78.9307 45.2696C78.9307 45.4747 78.9547 45.6421 79.0025 45.7719C79.0504 45.9052 79.1359 46.0111 79.2624 46.0966C79.3889 46.182 79.5598 46.2538 79.7752 46.3118C79.9906 46.3734 80.2607 46.4314 80.5854 46.493L81.7547 46.6911C82.3769 46.8005 82.8966 46.9372 83.3103 47.1046C83.7239 47.2721 84.0556 47.4805 84.2983 47.7265C84.5445 47.9726 84.7154 48.2562 84.8111 48.5808C84.9069 48.9054 84.9547 49.2642 84.9547 49.6606C84.9547 50.5115 84.6299 51.1983 83.9838 51.7211C83.3376 52.2439 82.353 52.5036 81.0333 52.5036C80.4931 52.5036 79.9735 52.4524 79.4777 52.3499C78.9786 52.2473 78.5341 52.0765 78.1376 51.8373C77.741 51.5981 77.4196 51.2769 77.1734 50.8737C76.9273 50.4739 76.7871 49.9647 76.7495 49.3531H78.7119H78.7188Z" fill="#F1CD84"/>
<path d="M88.2539 49.3531C88.2881 49.664 88.3736 49.9203 88.5069 50.1185C88.6402 50.3167 88.8043 50.4739 89.0026 50.5935C89.2009 50.7131 89.43 50.7951 89.6967 50.8361C89.9599 50.8771 90.2437 50.8976 90.5411 50.8976C91.2249 50.8976 91.7172 50.7951 92.0181 50.5935C92.3189 50.3884 92.4693 50.0912 92.4693 49.6948C92.4693 49.3838 92.377 49.1207 92.189 48.902C92.0044 48.6867 91.6215 48.5295 91.0471 48.4339C90.3018 48.3006 89.6488 48.1776 89.0847 48.0546C88.5206 47.935 88.0454 47.7709 87.6625 47.5591C87.2795 47.3506 86.9889 47.0807 86.7975 46.7492C86.606 46.4212 86.5103 45.9736 86.5103 45.4097C86.5103 44.9792 86.606 44.5862 86.7975 44.2308C86.9889 43.8789 87.2556 43.5782 87.5975 43.3321C87.9394 43.0861 88.3462 42.8982 88.8214 42.7649C89.2967 42.6316 89.8129 42.5667 90.377 42.5667C91.0984 42.5667 91.6967 42.6385 92.1753 42.782C92.654 42.9255 93.0437 43.1237 93.3446 43.3766C93.6454 43.6294 93.8711 43.9165 94.0283 44.2411C94.1856 44.5657 94.3053 44.9074 94.3873 45.2662L92.5514 45.5191C92.4078 45.0509 92.189 44.7024 91.895 44.4769C91.601 44.2479 91.1121 44.1352 90.4283 44.1352C90.0317 44.1352 89.7069 44.1727 89.4573 44.2445C89.2044 44.3163 89.0026 44.4051 88.8556 44.5145C88.7052 44.6238 88.6026 44.7434 88.5479 44.8733C88.4932 45.0065 88.4659 45.1364 88.4659 45.2696C88.4659 45.4747 88.4898 45.6421 88.5377 45.7719C88.5855 45.9052 88.671 46.0111 88.7975 46.0966C88.924 46.182 89.095 46.2538 89.3103 46.3118C89.5257 46.3734 89.7958 46.4314 90.1206 46.493L91.2898 46.6911C91.9121 46.8005 92.4317 46.9372 92.8454 47.1046C93.2591 47.2721 93.5907 47.4805 93.8335 47.7265C94.0796 47.9726 94.2506 48.2562 94.3463 48.5808C94.442 48.9054 94.4899 49.2642 94.4899 49.6606C94.4899 50.5115 94.1651 51.1983 93.5189 51.7211C92.8728 52.2439 91.8881 52.5036 90.5685 52.5036C90.0283 52.5036 89.5086 52.4524 89.0129 52.3499C88.5137 52.2473 88.0693 52.0765 87.6727 51.8373C87.2761 51.5981 86.9548 51.2769 86.7086 50.8737C86.4624 50.4739 86.3223 49.9647 86.2847 49.3531H88.2471H88.2539Z" fill="#F1CD84"/>
<path d="M104.52 49.4419C104.353 50.4124 103.939 51.1641 103.279 51.7006C102.62 52.2337 101.673 52.5002 100.435 52.5002C98.9478 52.5002 97.8162 52.0731 97.0435 51.2154C96.2708 50.3577 95.8811 49.1515 95.8811 47.5898C95.8811 46.7868 95.9905 46.0727 96.2127 45.4507C96.435 44.8288 96.7461 44.3026 97.1495 43.8755C97.5495 43.4483 98.0315 43.1271 98.5888 42.905C99.1461 42.6829 99.7615 42.5735 100.432 42.5735C101.153 42.5735 101.775 42.6829 102.302 42.905C102.828 43.1271 103.266 43.4381 103.615 43.8413C103.963 44.2445 104.22 44.7229 104.387 45.2799C104.555 45.8369 104.64 46.4588 104.64 47.1422V48.0409H97.929C97.9529 48.8918 98.1683 49.582 98.5751 50.1082C98.982 50.6345 99.6008 50.901 100.428 50.901C101.074 50.901 101.563 50.7746 101.885 50.5217C102.209 50.2689 102.425 49.9101 102.531 49.4419H104.51H104.52ZM102.65 46.6194C102.65 45.8505 102.469 45.2457 102.11 44.8015C101.751 44.3573 101.173 44.1352 100.384 44.1352C99.594 44.1352 99.0538 44.3607 98.6572 44.8083C98.2606 45.2594 98.035 45.8608 97.9734 46.616H102.65V46.6194Z" fill="#F1CD84"/>
<path d="M108.623 42.8606V44.2274C109.044 43.6533 109.512 43.233 110.035 42.9699C110.558 42.7068 111.119 42.5735 111.717 42.5735C113.806 42.5735 114.849 43.7251 114.849 46.0248V52.2132H112.798V46.3494C112.798 45.5943 112.661 45.0646 112.384 44.7571C112.107 44.453 111.7 44.2992 111.16 44.2992C110.801 44.2992 110.466 44.3607 110.162 44.4871C109.854 44.6136 109.594 44.7844 109.379 44.9997C109.163 45.215 108.993 45.4644 108.866 45.7446C108.74 46.0248 108.678 46.3221 108.678 46.6365V52.2132H106.644V42.8606H108.623Z" fill="#F1CD84"/>
<path d="M125.341 48.9396C125.222 50.0536 124.822 50.9284 124.145 51.5571C123.468 52.1858 122.497 52.5002 121.239 52.5002C120.483 52.5002 119.827 52.384 119.269 52.1483C118.712 51.9159 118.247 51.581 117.875 51.1505C117.502 50.7199 117.225 50.2005 117.047 49.5957C116.866 48.9909 116.777 48.3143 116.777 47.5728C116.777 46.8313 116.88 46.1478 117.085 45.5328C117.29 44.9143 117.584 44.388 117.974 43.9506C118.363 43.5132 118.839 43.175 119.403 42.9358C119.967 42.6966 120.61 42.577 121.328 42.577C121.987 42.577 122.545 42.6624 123.003 42.8367C123.458 43.0109 123.837 43.2433 124.138 43.5372C124.439 43.831 124.671 44.1693 124.839 44.552C125.006 44.9348 125.126 45.338 125.198 45.7583L123.163 46.0624C123.068 45.5362 122.883 45.0988 122.616 44.7502C122.346 44.4017 121.895 44.2274 121.259 44.2274C120.804 44.2274 120.425 44.3231 120.124 44.5145C119.823 44.7058 119.584 44.9553 119.403 45.2594C119.222 45.5635 119.095 45.9155 119.016 46.3119C118.938 46.7082 118.9 47.108 118.9 47.5181C118.9 47.9862 118.941 48.4236 119.027 48.8302C119.112 49.2369 119.242 49.5888 119.423 49.8827C119.604 50.1766 119.844 50.4089 120.145 50.5832C120.446 50.7575 120.811 50.8429 121.242 50.8429C121.864 50.8429 122.34 50.6789 122.664 50.3474C122.989 50.0194 123.191 49.5478 123.276 48.9362H125.345L125.341 48.9396Z" fill="#F1CD84"/>
<path d="M135.29 49.4419C135.123 50.4124 134.709 51.1641 134.049 51.7006C133.389 52.2337 132.442 52.5002 131.205 52.5002C129.717 52.5002 128.586 52.0731 127.813 51.2154C127.04 50.3577 126.651 49.1515 126.651 47.5898C126.651 46.7868 126.76 46.0727 126.982 45.4507C127.204 44.8288 127.516 44.3026 127.919 43.8755C128.319 43.4483 128.801 43.1271 129.358 42.905C129.916 42.6829 130.531 42.5735 131.201 42.5735C131.922 42.5735 132.545 42.6829 133.071 42.905C133.598 43.1271 134.035 43.4381 134.384 43.8413C134.733 44.2445 134.989 44.7229 135.157 45.2799C135.324 45.8369 135.41 46.4588 135.41 47.1422V48.0409H128.699C128.722 48.8918 128.938 49.582 129.345 50.1082C129.752 50.6345 130.37 50.901 131.198 50.901C131.844 50.901 132.333 50.7746 132.654 50.5217C132.979 50.2689 133.194 49.9101 133.3 49.4419H135.28H135.29ZM133.42 46.6194C133.42 45.8505 133.239 45.2457 132.88 44.8015C132.521 44.3573 131.943 44.1352 131.153 44.1352C130.363 44.1352 129.823 44.3607 129.427 44.8083C129.03 45.2594 128.804 45.8608 128.743 46.616H133.42V46.6194Z" fill="#F1CD84"/>
</g>
<defs>
<clipPath id="clip0_4_14">
<rect width="135.417" height="65" fill="white"/>
</clipPath>
</defs>
</svg>
