<svg width="136" height="65" viewBox="0 0 136 65" fill="none" xmlns="http://www.w3.org/2000/svg">
<g clip-path="url(#clip0_87_32)">
<path d="M26.2086 21.1279C25.9591 19.2724 25.665 17.5263 25.3368 15.8997C24.8411 18.3361 24.4308 21.0561 24.1231 23.9948C23.2684 25.2421 22.4616 26.5201 21.706 27.8322C21.4291 28.3141 21.1522 28.8027 20.8821 29.305C20.1094 28.4063 19.3026 27.5384 18.465 26.7046C18.1197 24.7944 17.9385 22.8296 17.9385 20.8238C17.9385 12.9303 20.7077 5.68263 25.3368 0.00341797C28.6976 4.13127 31.0839 9.08948 32.1335 14.5227C30.0035 16.5729 28.0206 18.7804 26.2086 21.1279Z" fill="#F1CD84"/>
<path d="M27.6241 62.5739C27.2002 61.8017 26.766 61.026 26.3181 60.2503C26.2395 60.117 26.1643 59.9838 26.0856 59.8471C24.954 57.8891 23.8018 55.9858 22.6429 54.1542C21.4052 52.1894 20.1539 50.3066 18.9061 48.5092C16.1197 44.5009 13.347 40.9437 10.7145 37.9674C12.4342 43.0999 14.9573 48.9944 18.1573 55.2067C18.7454 56.348 19.3573 57.4961 19.9864 58.6545C20.6326 59.8334 21.2992 61.0192 21.9864 62.2117C22.5129 63.1241 23.0429 64.0262 23.583 64.9112C21.73 64.0023 19.9351 62.9566 18.2257 61.7778C18.2189 61.7709 18.212 61.7675 18.2086 61.7641C13.2171 58.3231 8.89913 53.7476 5.66491 48.1504C0.61187 39.406 -0.953957 29.6058 0.540075 20.3557C9.12135 23.6259 16.7009 29.7015 21.7505 38.1725C21.8565 38.3433 21.9557 38.5176 22.0582 38.6919C23.8805 41.8492 25.2514 45.1399 26.1848 48.4989C27.0395 51.5777 27.5352 54.7044 27.6754 57.8276C27.7472 59.4131 27.7301 60.9987 27.6207 62.5739H27.6241Z" fill="#F1CD84"/>
<path d="M47.3678 42.6522C43.4224 49.483 38.2566 55.169 32.3009 59.5942C32.3009 58.9347 32.2838 58.2752 32.2531 57.6225C32.1471 55.3194 31.8702 53.0231 31.4257 50.761C35.3711 42.9768 38.4993 35.5993 40.6634 29.1376C37.0531 33.2142 33.2445 38.1177 29.4291 43.6534C28.8274 42.0234 28.1368 40.4277 27.3573 38.8695C27.2958 38.7499 27.2377 38.6269 27.1727 38.5073C26.8137 37.7931 26.4274 37.0892 26.0274 36.3955C25.9111 36.2007 25.7949 36.0025 25.6752 35.8078C25.1351 34.9022 24.5607 34.0138 23.9556 33.1493C24.4684 32.1207 25.0154 31.1024 25.6 30.0909C26.0171 29.3699 26.4479 28.6626 26.8889 27.9689C28.6394 25.2182 30.5949 22.6724 32.7283 20.3351C38.7352 13.7401 46.1199 8.81269 54.1747 5.74756C56.1542 18.0286 54.0721 31.0409 47.3678 42.6522Z" fill="#F1CD84"/>
<path d="M69.1628 61.8392C69.0226 61.6855 68.8551 61.5693 68.6636 61.4941C68.4722 61.4189 68.2636 61.3813 68.0414 61.3813C67.8192 61.3813 67.6106 61.4223 67.4192 61.5009C67.2277 61.5795 67.0602 61.6991 66.9166 61.8529C66.7764 62.0067 66.6636 62.2014 66.585 62.427C66.5064 62.6525 66.4688 62.9122 66.4688 63.2027C66.4688 63.4931 66.5098 63.7528 66.585 63.9749C66.6636 64.2005 66.773 64.3918 66.9132 64.5422C67.0534 64.6959 67.2209 64.8121 67.4158 64.8873C67.6072 64.9625 67.8192 65.0001 68.038 65.0001C68.2568 65.0001 68.4722 64.959 68.6636 64.8805C68.8551 64.8019 69.0226 64.6823 69.1628 64.5285C69.2995 64.3747 69.4089 64.1834 69.4876 63.9578C69.5628 63.7357 69.6038 63.4726 69.6038 63.1787C69.6038 62.8849 69.5628 62.6286 69.4876 62.4065C69.4089 62.1844 69.2995 61.993 69.1628 61.8427V61.8392ZM68.0414 61.7982C68.2158 61.7982 68.3765 61.8324 68.5098 61.8973C68.6465 61.9623 68.7594 62.0579 68.8517 62.1775C68.944 62.2971 69.0158 62.4475 69.0636 62.6149C69.1149 62.7858 69.1389 62.9805 69.1389 63.189C69.1389 63.3974 69.1149 63.5922 69.0671 63.7631C69.0192 63.9339 68.9474 64.0809 68.8551 64.2005C68.7628 64.3201 68.65 64.4123 68.5132 64.4807C68.3799 64.5456 68.2192 64.5797 68.0414 64.5797C67.8636 64.5797 67.6927 64.5456 67.5559 64.4807C67.4192 64.4157 67.3029 64.32 67.2141 64.2039C67.1218 64.0843 67.05 63.9373 67.0055 63.7665C66.9576 63.5922 66.9337 63.4008 66.9337 63.1924C66.9337 62.984 66.9576 62.7892 67.0055 62.6183C67.0534 62.4475 67.1218 62.3005 67.2141 62.1809C67.3029 62.0613 67.4158 61.9691 67.5525 61.9042C67.6893 61.8392 67.8534 61.8051 68.038 61.8051L68.0414 61.7982Z" fill="#F1CD84"/>
<path d="M72.2877 63.0182C72.3902 62.8576 72.4415 62.6628 72.4415 62.4373C72.4415 62.3211 72.4244 62.2015 72.3902 62.0853C72.3526 61.9657 72.2842 61.8563 72.1885 61.7641C72.0928 61.6718 71.9595 61.6001 71.7988 61.542C71.6381 61.4873 71.433 61.46 71.1902 61.46H70.0723V64.9146H70.5201V63.4795H71.1492C71.2142 63.4795 71.2723 63.4795 71.3304 63.4726C71.3646 63.4726 71.3988 63.4658 71.433 63.4624L72.0894 64.9146H72.6056L71.8774 63.353C72.062 63.271 72.2022 63.1583 72.2911 63.0182H72.2877ZM70.5167 61.8768H71.1731C71.3406 61.8768 71.4808 61.8905 71.5868 61.9144C71.6894 61.9384 71.7714 61.9759 71.8295 62.0238C71.8877 62.0682 71.9253 62.1229 71.9458 62.1878C71.9697 62.2596 71.9834 62.345 71.9834 62.4441C71.9834 62.5432 71.9697 62.6354 71.9492 62.714C71.9287 62.7858 71.8911 62.8473 71.8364 62.8986C71.7817 62.9498 71.7065 62.9908 71.6107 63.0182C71.5116 63.0489 71.3783 63.0626 71.2244 63.0626H70.5167V61.8768Z" fill="#F1CD84"/>
<path d="M73.378 61.46H72.9268V64.9146H73.378V61.46Z" fill="#F1CD84"/>
<path d="M74.4142 63.353H76.1099V62.9191H74.4142V61.8837H76.1988V61.46H73.9629V64.9146H76.1954L76.3014 64.4875H74.4142V63.353Z" fill="#F1CD84"/>
<path d="M78.8174 64.098L77.108 61.46H76.6704V64.9146H77.1114V62.2664L78.8243 64.9146H79.2619V61.46H78.8174V64.098Z" fill="#F1CD84"/>
<path d="M82.2776 61.46H79.5459V61.8905H80.6878V64.9146H81.1391V61.8905H82.2776V61.46Z" fill="#F1CD84"/>
<path d="M83.1083 61.46L81.7373 64.9146H82.2159L82.6057 63.91H84.0348L84.4313 64.9146H84.9168L83.5527 61.46H83.1048H83.1083ZM82.7766 63.4829L83.3202 62.0853L83.8707 63.4829H82.7766Z" fill="#F1CD84"/>
<path d="M85.5939 61.46H85.1426V64.9146H87.3033L87.4024 64.4841H85.5939V61.46Z" fill="#F1CD84"/>
<path d="M90.9166 63.2949C90.8311 63.2129 90.7183 63.1446 90.5884 63.0899C90.4619 63.0386 90.3115 62.9976 90.1405 62.9669L89.6756 62.8849C89.5491 62.8609 89.4431 62.8336 89.3611 62.8029C89.2858 62.7721 89.2243 62.7379 89.1799 62.6969C89.1388 62.6593 89.1081 62.6115 89.091 62.5568C89.0739 62.4987 89.0636 62.427 89.0636 62.345C89.0636 62.2664 89.0773 62.1912 89.1046 62.1263C89.1286 62.0613 89.173 62.0067 89.2311 61.9588C89.2927 61.9076 89.3747 61.87 89.4773 61.8392C89.5833 61.8085 89.7166 61.7948 89.8773 61.7948C90.0209 61.7948 90.1405 61.8085 90.2363 61.8324C90.3286 61.8563 90.4072 61.8939 90.4653 61.9383C90.5234 61.9828 90.5713 62.0374 90.6089 62.1024C90.6465 62.1707 90.6807 62.2527 90.7115 62.3416L90.7354 62.4201L91.1559 62.3005L91.132 62.2185C91.1012 62.116 91.0602 62.0169 91.0089 61.9212C90.9542 61.8187 90.879 61.7231 90.7799 61.6445C90.6841 61.5625 90.5576 61.4975 90.4106 61.4531C90.2636 61.4053 90.0824 61.3813 89.8705 61.3813C89.7063 61.3813 89.5457 61.3984 89.3952 61.436C89.2448 61.4736 89.1081 61.5317 88.9952 61.6103C88.879 61.6889 88.7833 61.7914 88.7149 61.911C88.6431 62.034 88.6089 62.1809 88.6089 62.345C88.6089 62.509 88.6328 62.6457 88.6807 62.7584C88.732 62.8746 88.8038 62.9737 88.9029 63.0523C88.9952 63.1275 89.1115 63.189 89.2448 63.2334C89.3713 63.2778 89.5217 63.3154 89.6858 63.3428L90.0961 63.4111C90.2329 63.435 90.3423 63.4658 90.4243 63.5034C90.5029 63.5409 90.5611 63.582 90.5987 63.6298C90.6397 63.6776 90.6636 63.7289 90.6773 63.7836C90.691 63.8451 90.7012 63.9134 90.7012 63.9818C90.7012 64.0638 90.6876 64.1424 90.6636 64.2175C90.6397 64.2859 90.6021 64.3474 90.5474 64.3986C90.4927 64.4499 90.414 64.4943 90.3183 64.5285C90.2192 64.5627 90.0893 64.5797 89.9354 64.5797C89.6311 64.5797 89.4021 64.5285 89.2551 64.4294C89.1115 64.3337 89.0192 64.1765 88.9747 63.951L88.961 63.8827H88.52L88.5303 63.9783C88.5508 64.1629 88.6021 64.32 88.6807 64.4499C88.7593 64.5797 88.8653 64.6857 88.9884 64.7677C89.1115 64.8497 89.2551 64.9078 89.4158 64.942C89.573 64.9761 89.744 64.9932 89.9286 64.9932C90.1303 64.9932 90.3081 64.9659 90.4619 64.9146C90.6158 64.8634 90.7457 64.7916 90.8517 64.6993C90.9576 64.6105 91.0397 64.5012 91.0944 64.3781C91.1491 64.2551 91.1765 64.1253 91.1765 63.9886C91.1765 63.8382 91.1559 63.705 91.1149 63.5922C91.0739 63.476 91.0055 63.3735 90.9166 63.2915V63.2949Z" fill="#F1CD84"/>
<path d="M94.0109 62.902C94.0485 62.7721 94.069 62.632 94.069 62.4919C94.069 62.3518 94.0519 62.2254 94.0143 62.1024C93.9767 61.9725 93.9083 61.8598 93.8091 61.7641C93.7134 61.6684 93.5801 61.5932 93.416 61.5386C93.2553 61.4839 93.0467 61.46 92.8006 61.46H91.6553V64.9146H92.1031V63.5854H92.7903C93.0399 63.5854 93.245 63.5581 93.4057 63.5C93.5698 63.4419 93.7066 63.3633 93.8023 63.2608C93.9014 63.1583 93.9698 63.0387 94.0109 62.902ZM92.1031 61.8734H92.7903C92.9613 61.8734 93.1014 61.8871 93.2109 61.9144C93.3134 61.9418 93.3955 61.9794 93.4536 62.0306C93.5117 62.0819 93.5493 62.14 93.5732 62.2151C93.5972 62.2937 93.6108 62.3928 93.6108 62.5056C93.6108 62.6184 93.6006 62.7106 93.5767 62.796C93.5561 62.8746 93.5185 62.9361 93.4638 62.9908C93.4057 63.0455 93.3237 63.0899 93.2211 63.1207C93.1117 63.1548 92.9715 63.1685 92.7938 63.1685H92.1031V61.8734Z" fill="#F1CD84"/>
<path d="M95.5698 61.46H95.1219L93.751 64.9146H94.2296L94.6194 63.91H96.0484L96.445 64.9146H96.9305L95.5664 61.46H95.5698ZM94.7903 63.4829L95.3339 62.0853L95.8843 63.4829H94.7903Z" fill="#F1CD84"/>
<path d="M122.62 63.0933H100.886V63.2846H122.62V63.0933Z" fill="#F1CD84"/>
<path d="M66.5542 21.3877H70.9987C71.9354 21.3877 72.7013 21.4731 73.303 21.6474C73.9013 21.8217 74.3799 22.0609 74.7321 22.3684C75.0842 22.6725 75.3269 23.0347 75.4603 23.4482C75.5936 23.8617 75.6586 24.3025 75.6586 24.7706C75.6586 25.3105 75.5389 25.8094 75.2996 26.2707C75.0603 26.732 74.6227 27.1147 73.9868 27.412C74.3936 27.5931 74.7321 27.7948 74.9953 28.0237C75.2586 28.2526 75.4705 28.4953 75.6244 28.7515C75.7816 29.0112 75.8876 29.2778 75.9492 29.5614C76.0073 29.8416 76.0381 30.1286 76.0381 30.4157C76.0381 30.9419 75.956 31.4408 75.7953 31.9089C75.6346 32.3771 75.368 32.7803 74.9953 33.122C74.6227 33.4637 74.1372 33.7337 73.5389 33.9319C72.9406 34.13 72.2021 34.2291 71.3269 34.2291H66.5576V21.3877H66.5542ZM71.2517 26.6569C72.103 26.6569 72.6978 26.4997 73.0329 26.1887C73.3679 25.8778 73.5355 25.4267 73.5355 24.839C73.5355 24.2512 73.3406 23.7865 72.9508 23.5165C72.5611 23.2466 71.8876 23.1133 70.9269 23.1133H68.6602V26.6569H71.2517ZM71.2517 32.483C71.7679 32.483 72.1953 32.4352 72.5372 32.3395C72.879 32.2438 73.1491 32.1071 73.3474 31.926C73.5457 31.7449 73.6859 31.5296 73.7714 31.2768C73.8568 31.0239 73.8979 30.7437 73.8979 30.4327C73.8979 29.7835 73.7132 29.2914 73.3474 28.9497C72.9816 28.608 72.3491 28.4372 71.45 28.4372H68.6602V32.483H71.2517Z" fill="#F1CD84"/>
<path d="M86.1853 31.458C86.0178 32.4284 85.6041 33.1802 84.9443 33.7167C84.2844 34.2497 83.3374 34.5163 82.0998 34.5163C80.6126 34.5163 79.481 34.0891 78.7083 33.2314C77.9356 32.3737 77.5459 31.1675 77.5459 29.6059C77.5459 28.8029 77.6553 28.0887 77.8775 27.4668C78.0997 26.8449 78.4109 26.3186 78.8143 25.8915C79.2143 25.4644 79.6963 25.1432 80.2536 24.9211C80.8109 24.6989 81.4263 24.5896 82.0964 24.5896C82.8177 24.5896 83.44 24.6989 83.9665 24.9211C84.493 25.1432 84.9306 25.4541 85.2793 25.8573C85.628 26.2606 85.8844 26.739 86.052 27.2959C86.2195 27.8529 86.305 28.4748 86.305 29.1583V30.057H79.5938C79.6177 30.9078 79.8331 31.5981 80.2399 32.1243C80.6468 32.6505 81.2656 32.9171 82.0929 32.9171C82.7391 32.9171 83.228 32.7906 83.5494 32.5378C83.8742 32.2849 84.0896 31.9261 84.1955 31.458H86.175H86.1853ZM84.3152 28.6354C84.3152 27.8666 84.134 27.2618 83.775 26.8175C83.416 26.3733 82.8383 26.1512 82.0485 26.1512C81.2588 26.1512 80.7186 26.3767 80.322 26.8244C79.9254 27.2754 79.6998 27.8768 79.6382 28.632H84.3152V28.6354Z" fill="#F1CD84"/>
<path d="M93.9767 33.0059C93.628 33.4262 93.204 33.7748 92.698 34.0481C92.1955 34.3249 91.5835 34.4616 90.8621 34.4616C90.4177 34.4616 90.004 34.4035 89.6211 34.2907C89.2382 34.178 88.9031 34.0071 88.6228 33.7782C88.3424 33.5492 88.1202 33.2588 87.9561 32.9068C87.7954 32.5549 87.7134 32.138 87.7134 31.6562C87.7134 31.0069 87.857 30.4841 88.1442 30.0809C88.4313 29.6777 88.8074 29.3633 89.2689 29.1378C89.7305 28.9088 90.2502 28.7516 90.8245 28.6628C91.3989 28.5739 91.9767 28.5158 92.551 28.4919L93.9357 28.4202V28.0238C93.9357 27.3164 93.7647 26.8278 93.4228 26.5578C93.081 26.2879 92.6331 26.1546 92.0827 26.1546C91.4467 26.1546 90.9749 26.264 90.6707 26.4793C90.363 26.6945 90.1647 27.0055 90.069 27.4155L88.1989 27.2173C88.3664 26.305 88.7801 25.6421 89.4399 25.2218C90.0997 24.8015 91.0057 24.593 92.1579 24.593C92.9032 24.593 93.5151 24.6887 94.0006 24.8801C94.4861 25.0714 94.8724 25.3345 95.1596 25.6728C95.4468 26.0077 95.6485 26.4075 95.7613 26.8688C95.8741 27.3301 95.9323 27.8358 95.9323 28.3894V34.2326H93.9698V33.0093L93.9767 33.0059ZM92.6262 29.8588C92.0143 29.8963 91.5185 29.9613 91.1425 30.057C90.763 30.1526 90.4724 30.2756 90.2707 30.426C90.0655 30.5764 89.9322 30.7506 89.8672 30.9488C89.8023 31.147 89.7681 31.3589 89.7681 31.5878C89.7681 31.9944 89.898 32.3122 90.1544 32.5412C90.4108 32.7701 90.7938 32.8829 91.2963 32.8829C92.1955 32.8829 92.8621 32.6539 93.2929 32.1995C93.7237 31.745 93.9425 31.1265 93.9425 30.3474V29.8075L92.6297 29.8622L92.6262 29.8588Z" fill="#F1CD84"/>
<path d="M100.147 24.8765V30.7573C100.147 31.5364 100.277 32.0695 100.534 32.3565C100.79 32.6435 101.183 32.787 101.713 32.787C102.001 32.787 102.291 32.7324 102.585 32.6264C102.879 32.5171 103.139 32.3633 103.368 32.1583C103.597 31.9533 103.782 31.7072 103.925 31.4202C104.069 31.1332 104.141 30.8085 104.141 30.4497V24.873H106.192V34.2256H104.195V32.8588C103.765 33.4329 103.296 33.8532 102.79 34.1163C102.288 34.3794 101.748 34.5127 101.17 34.5127C100.079 34.5127 99.2962 34.2325 98.821 33.6687C98.3458 33.1048 98.1099 32.2403 98.1099 31.0785V24.873H100.144L100.147 24.8765Z" fill="#F1CD84"/>
<path d="M107.597 26.4928V24.8731H109.074V22.3547H111.108V24.8731H113.43V26.4928H111.108V31.3861C111.108 31.8645 111.207 32.2131 111.406 32.4283C111.604 32.6436 111.895 32.753 112.278 32.753C112.483 32.753 112.678 32.7427 112.862 32.7154C113.047 32.6915 113.231 32.6504 113.409 32.5889L113.717 34.1164C113.143 34.3077 112.517 34.4034 111.847 34.4034C110.814 34.4034 110.096 34.1369 109.686 33.6038C109.279 33.0707 109.074 32.2711 109.074 31.2016V26.4894H107.597V26.4928Z" fill="#F1CD84"/>
<path d="M115.515 35.8829C115.816 35.9923 116.158 36.0435 116.541 36.0435C116.9 36.0435 117.184 35.9581 117.386 35.7838C117.591 35.6096 117.782 35.2815 117.96 34.8031L118.302 33.9044L114.36 24.8765H116.736L119.31 31.6218L121.669 24.8765H123.902L120.179 34.3179C119.963 34.8681 119.758 35.3533 119.567 35.7736C119.375 36.1939 119.16 36.5458 118.921 36.8363C118.681 37.1233 118.394 37.342 118.066 37.4924C117.734 37.6427 117.331 37.7179 116.852 37.7179C116.541 37.7179 116.254 37.6974 115.987 37.6564C115.724 37.6154 115.44 37.5471 115.143 37.4514L115.522 35.8863L115.515 35.8829Z" fill="#F1CD84"/>
<path d="M66.5542 39.3718H75.1013V41.241H68.732V44.6581H74.7423V46.5477H68.732V50.3407H75.4432L75.1902 52.2099H66.5542V39.3684V39.3718Z" fill="#F1CD84"/>
<path d="M78.7183 49.3532C78.7525 49.6642 78.8379 49.9205 78.9713 50.1187C79.1046 50.3169 79.2687 50.4741 79.467 50.5937C79.6653 50.7133 79.8944 50.7953 80.161 50.8363C80.4243 50.8773 80.708 50.8978 81.0055 50.8978C81.6892 50.8978 82.1816 50.7953 82.4824 50.5937C82.7833 50.3886 82.9337 50.0913 82.9337 49.695C82.9337 49.384 82.8414 49.1209 82.6533 48.9022C82.4687 48.6869 82.0858 48.5297 81.5115 48.4341C80.7662 48.3008 80.1132 48.1778 79.549 48.0548C78.9849 47.9352 78.5097 47.7711 78.1268 47.5593C77.7439 47.3508 77.4533 47.0809 77.2618 46.7494C77.0704 46.4214 76.9747 45.9737 76.9747 45.4099C76.9747 44.9794 77.0704 44.5864 77.2618 44.231C77.4533 43.8791 77.72 43.5784 78.0619 43.3323C78.4037 43.0863 78.8106 42.8984 79.2858 42.7651C79.761 42.6318 80.2773 42.5669 80.8414 42.5669C81.5627 42.5669 82.161 42.6387 82.6397 42.7822C83.1183 42.9257 83.5081 43.1239 83.8089 43.3767C84.1098 43.6296 84.3354 43.9166 84.4927 44.2413C84.65 44.5659 84.7696 44.9076 84.8517 45.2664L83.0158 45.5193C82.8722 45.0511 82.6533 44.7026 82.3593 44.4771C82.0653 44.2481 81.5764 44.1353 80.8927 44.1353C80.4961 44.1353 80.1713 44.1729 79.9217 44.2447C79.6687 44.3164 79.467 44.4053 79.32 44.5146C79.1696 44.624 79.067 44.7436 79.0123 44.8734C78.9576 45.0067 78.9302 45.1365 78.9302 45.2698C78.9302 45.4748 78.9542 45.6423 79.002 45.7721C79.0499 45.9054 79.1354 46.0113 79.2619 46.0968C79.3884 46.1822 79.5593 46.2539 79.7747 46.312C79.9901 46.3735 80.2602 46.4316 80.585 46.4931L81.7542 46.6913C82.3764 46.8007 82.8961 46.9374 83.3098 47.1048C83.7234 47.2722 84.0551 47.4807 84.2978 47.7267C84.544 47.9727 84.7149 48.2564 84.8106 48.581C84.9064 48.9056 84.9542 49.2644 84.9542 49.6608C84.9542 50.5116 84.6294 51.1985 83.9833 51.7213C83.3371 52.2441 82.3525 52.5038 81.0328 52.5038C80.4926 52.5038 79.973 52.4526 79.4773 52.35C78.9781 52.2475 78.5337 52.0767 78.1371 51.8375C77.7405 51.5983 77.4191 51.2771 77.173 50.8739C76.9268 50.4741 76.7866 49.9649 76.749 49.3532H78.7114H78.7183Z" fill="#F1CD84"/>
<path d="M88.2534 49.3532C88.2876 49.6642 88.3731 49.9205 88.5064 50.1187C88.6398 50.3169 88.8039 50.4741 89.0021 50.5937C89.2004 50.7133 89.4295 50.7953 89.6962 50.8363C89.9594 50.8773 90.2432 50.8978 90.5406 50.8978C91.2244 50.8978 91.7167 50.7953 92.0176 50.5937C92.3184 50.3886 92.4689 50.0913 92.4689 49.695C92.4689 49.384 92.3765 49.1209 92.1885 48.9022C92.0039 48.6869 91.621 48.5297 91.0466 48.4341C90.3013 48.3008 89.6483 48.1778 89.0842 48.0548C88.5201 47.9352 88.0449 47.7711 87.662 47.5593C87.2791 47.3508 86.9885 47.0809 86.797 46.7494C86.6056 46.4214 86.5098 45.9737 86.5098 45.4099C86.5098 44.9794 86.6056 44.5864 86.797 44.231C86.9885 43.8791 87.2551 43.5784 87.597 43.3323C87.9389 43.0863 88.3457 42.8984 88.821 42.7651C89.2962 42.6318 89.8124 42.5669 90.3765 42.5669C91.0979 42.5669 91.6962 42.6387 92.1748 42.7822C92.6535 42.9257 93.0432 43.1239 93.3441 43.3767C93.6449 43.6296 93.8706 43.9166 94.0278 44.2413C94.1851 44.5659 94.3048 44.9076 94.3868 45.2664L92.5509 45.5193C92.4073 45.0511 92.1885 44.7026 91.8945 44.4771C91.6005 44.2481 91.1116 44.1353 90.4278 44.1353C90.0312 44.1353 89.7064 44.1729 89.4569 44.2447C89.2039 44.3164 89.0022 44.4053 88.8551 44.5146C88.7047 44.624 88.6021 44.7436 88.5474 44.8734C88.4927 45.0067 88.4654 45.1365 88.4654 45.2698C88.4654 45.4748 88.4893 45.6423 88.5372 45.7721C88.5851 45.9054 88.6705 46.0113 88.797 46.0968C88.9235 46.1822 89.0945 46.2539 89.3099 46.312C89.5252 46.3735 89.7953 46.4316 90.1201 46.4931L91.2894 46.6913C91.9116 46.8007 92.4312 46.9374 92.8449 47.1048C93.2586 47.2722 93.5902 47.4807 93.833 47.7267C94.0791 47.9727 94.2501 48.2564 94.3458 48.581C94.4415 48.9056 94.4894 49.2644 94.4894 49.6608C94.4894 50.5116 94.1646 51.1985 93.5184 51.7213C92.8723 52.2441 91.8877 52.5038 90.568 52.5038C90.0278 52.5038 89.5081 52.4526 89.0124 52.35C88.5133 52.2475 88.0688 52.0767 87.6722 51.8375C87.2756 51.5983 86.9543 51.2771 86.7081 50.8739C86.462 50.4741 86.3218 49.9649 86.2842 49.3532H88.2466H88.2534Z" fill="#F1CD84"/>
<path d="M104.52 49.4421C104.353 50.4126 103.939 51.1643 103.279 51.7008C102.619 52.2339 101.672 52.5004 100.435 52.5004C98.9475 52.5004 97.8159 52.0733 97.0433 51.2156C96.2706 50.3579 95.8809 49.1516 95.8809 47.59C95.8809 46.787 95.9903 46.0728 96.2125 45.4509C96.4347 44.829 96.7458 44.3028 97.1492 43.8756C97.5492 43.4485 98.0313 43.1273 98.5886 42.9052C99.1458 42.6831 99.7612 42.5737 100.431 42.5737C101.153 42.5737 101.775 42.6831 102.301 42.9052C102.828 43.1273 103.266 43.4383 103.614 43.8415C103.963 44.2447 104.219 44.7231 104.387 45.2801C104.554 45.8371 104.64 46.459 104.64 47.1424V48.0411H97.9287C97.9527 48.8919 98.1681 49.5822 98.5749 50.1084C98.9817 50.6347 99.6005 50.9012 100.428 50.9012C101.074 50.9012 101.563 50.7748 101.884 50.5219C102.209 50.269 102.425 49.9102 102.53 49.4421H104.51H104.52ZM102.65 46.6196C102.65 45.8507 102.469 45.2459 102.11 44.8017C101.751 44.3575 101.173 44.1353 100.383 44.1353C99.5937 44.1353 99.0535 44.3609 98.657 44.8085C98.2604 45.2596 98.0347 45.861 97.9732 46.6162H102.65V46.6196Z" fill="#F1CD84"/>
<path d="M108.623 42.8608V44.2276C109.044 43.6535 109.512 43.2332 110.035 42.9701C110.558 42.707 111.119 42.5737 111.717 42.5737C113.806 42.5737 114.849 43.7253 114.849 46.025V52.2134H112.797V46.3496C112.797 45.5944 112.661 45.0648 112.384 44.7573C112.107 44.4531 111.7 44.2994 111.16 44.2994C110.801 44.2994 110.466 44.3609 110.162 44.4873C109.854 44.6137 109.594 44.7846 109.379 44.9999C109.163 45.2151 108.992 45.4646 108.866 45.7448C108.739 46.025 108.678 46.3223 108.678 46.6367V52.2134H106.644V42.8608H108.623Z" fill="#F1CD84"/>
<path d="M125.341 48.9398C125.221 50.0538 124.821 50.9285 124.144 51.5573C123.468 52.186 122.497 52.5004 121.238 52.5004C120.483 52.5004 119.826 52.3842 119.269 52.1484C118.712 51.9161 118.247 51.5812 117.874 51.1506C117.502 50.7201 117.225 50.2007 117.047 49.5959C116.866 48.991 116.777 48.3145 116.777 47.5729C116.777 46.8314 116.879 46.148 117.085 45.5329C117.29 44.9144 117.584 44.3882 117.973 43.9508C118.363 43.5134 118.838 43.1751 119.403 42.9359C119.967 42.6967 120.609 42.5771 121.327 42.5771C121.987 42.5771 122.544 42.6626 123.003 42.8368C123.457 43.0111 123.837 43.2435 124.138 43.5374C124.438 43.8312 124.671 44.1695 124.838 44.5522C125.006 44.9349 125.126 45.3382 125.197 45.7585L123.163 46.0626C123.068 45.5364 122.883 45.099 122.616 44.7504C122.346 44.4019 121.895 44.2276 121.259 44.2276C120.804 44.2276 120.425 44.3233 120.124 44.5146C119.823 44.706 119.584 44.9554 119.403 45.2596C119.221 45.5637 119.095 45.9157 119.016 46.312C118.938 46.7084 118.9 47.1082 118.9 47.5183C118.9 47.9864 118.941 48.4238 119.026 48.8304C119.112 49.2371 119.242 49.589 119.423 49.8829C119.604 50.1768 119.844 50.4091 120.144 50.5834C120.445 50.7577 120.811 50.8431 121.242 50.8431C121.864 50.8431 122.339 50.6791 122.664 50.3476C122.989 50.0196 123.191 49.548 123.276 48.9364H125.344L125.341 48.9398Z" fill="#F1CD84"/>
<path d="M135.29 49.4421C135.122 50.4126 134.709 51.1643 134.049 51.7008C133.389 52.2339 132.442 52.5004 131.204 52.5004C129.717 52.5004 128.585 52.0733 127.813 51.2156C127.04 50.3579 126.65 49.1516 126.65 47.59C126.65 46.787 126.76 46.0728 126.982 45.4509C127.204 44.829 127.515 44.3028 127.919 43.8756C128.319 43.4485 128.801 43.1273 129.358 42.9052C129.915 42.6831 130.531 42.5737 131.201 42.5737C131.922 42.5737 132.544 42.6831 133.071 42.9052C133.597 43.1273 134.035 43.4383 134.384 43.8415C134.733 44.2447 134.989 44.7231 135.156 45.2801C135.324 45.8371 135.409 46.459 135.409 47.1424V48.0411H128.698C128.722 48.8919 128.938 49.5822 129.344 50.1084C129.751 50.6347 130.37 50.9012 131.197 50.9012C131.844 50.9012 132.332 50.7748 132.654 50.5219C132.979 50.269 133.194 49.9102 133.3 49.4421H135.28H135.29ZM133.42 46.6196C133.42 45.8507 133.238 45.2459 132.88 44.8017C132.521 44.3575 131.943 44.1353 131.153 44.1353C130.363 44.1353 129.823 44.3609 129.426 44.8085C129.03 45.2596 128.804 45.861 128.743 46.6162H133.42V46.6196Z" fill="#F1CD84"/>
</g>
<defs>
<clipPath id="clip0_87_32">
<rect width="135.417" height="65" fill="white"/>
</clipPath>
</defs>
</svg>
